<svg xmlns="http://www.w3.org/2000/svg" height="1024" preserveAspectRatio="none" style="display: block;" version="1.1" viewBox="0 0 2048 2048" width="1024">
<defs>
	<linearGradient gradientUnits="userSpaceOnUse" id="Gradient1" x1="581.454" x2="613.533" y1="953.09" y2="920.044">
		<stop class="stop0" offset="0" stop-color="rgb(255,255,255)" stop-opacity="0"></stop>
		<stop class="stop1" offset="1" stop-color="rgb(255,255,255)" stop-opacity="0.0588235"></stop>
	</linearGradient>
	<linearGradient gradientUnits="userSpaceOnUse" id="Gradient2" x1="641.957" x2="642.626" y1="964.609" y2="971.248">
		<stop class="stop0" offset="0" stop-color="rgb(255,255,255)" stop-opacity="0.968627"></stop>
		<stop class="stop1" offset="1" stop-color="rgb(255,255,255)" stop-opacity="1"></stop>
	</linearGradient>
	<linearGradient gradientUnits="userSpaceOnUse" id="Gradient3" x1="994.889" x2="996.67" y1="789.141" y2="753.648">
		<stop class="stop0" offset="0" stop-color="rgb(255,255,255)" stop-opacity="0"></stop>
		<stop class="stop1" offset="1" stop-color="rgb(255,255,255)" stop-opacity="0.0352941"></stop>
	</linearGradient>
</defs>
<path d="M 581.42 239.777 C 598.654 227.339 615.146 215.178 634.277 205.377 C 871.322 83.942 1231.18 187.698 1283.05 473.511 C 1284.99 484.202 1286.64 498.104 1287.15 508.81 C 1295.62 515.014 1306.87 523.756 1308.44 534.771 C 1310.9 552.036 1305.33 627.131 1296.82 637.951 C 1294.54 640.856 1291.78 643.067 1288.79 645.183 C 1289.46 658.536 1290.96 672.501 1296.31 682.421 C 1303.65 696.004 1367.56 758.017 1349.9 772.326 C 1332.95 786.059 1238.97 795.327 1214.91 799.193 C 1192.8 802.744 1165.87 802.701 1146.09 806.237 C 1155.86 820.001 1168.36 833.53 1178.75 847.018 C 1186.08 856.538 1192.54 866.084 1199.25 876.036 C 1222.29 866.853 1257.53 850.986 1281.28 847.288 C 1288.36 873.88 1290.33 892.637 1286.16 920.182 C 1292.75 923.05 1301.73 927.151 1308.32 929.307 C 1329.17 936.123 1341.58 938.023 1357.89 953.693 C 1365.69 961.191 1370.31 969.305 1377 976.144 C 1390.69 974.398 1407.68 970.847 1421.21 973.116 C 1444.36 976.999 1491 1008.59 1510.52 1023.65 C 1522.5 1032.9 1533.4 1044.03 1545.82 1052.59 C 1559.31 1061.88 1574.31 1068.63 1587.25 1078.84 C 1602.93 1091.2 1668.57 1152.8 1670.66 1167.71 C 1672.35 1179.85 1663.54 1197.26 1658.65 1208.06 C 1679.25 1233.44 1690.45 1247.05 1707.56 1275.13 C 1700.12 1282.71 1691.91 1289.06 1684.37 1296.57 C 1668.54 1312.33 1651.4 1326.76 1635.26 1342.16 C 1626.74 1326.45 1619.69 1310.05 1611.64 1294.12 C 1593.16 1257.53 1568.21 1223.56 1535.52 1198.45 C 1519.38 1186.05 1504.72 1177.38 1484.82 1173.28 C 1494.99 1185.96 1504.9 1195.59 1515.52 1209.42 C 1552.52 1258.4 1582.06 1312.59 1603.18 1370.22 C 1599.97 1373.11 1596.73 1376.15 1593.34 1378.82 C 1591.02 1368.9 1584 1352.59 1579.79 1342.98 C 1559.9 1296.91 1534.61 1253.36 1504.45 1213.26 C 1494.75 1200.43 1478.47 1183.75 1470.86 1172.88 L 1456.9 1174.33 C 1499.09 1218.2 1526.99 1262.44 1553.9 1317.1 C 1565.57 1340.79 1576.52 1362.28 1585 1387.45 C 1582.11 1389.29 1579.16 1391.22 1576.21 1392.96 C 1568.81 1377.36 1562.79 1360.95 1555.54 1345.77 C 1532.53 1297.55 1507.95 1249.77 1473.37 1208.66 C 1465.21 1198.96 1452.1 1183.69 1442.43 1176.1 C 1358.98 1221.53 1255.83 1366.77 1228.28 1458.14 C 1211.36 1514.26 1201.73 1598.7 1223.56 1653.89 C 1232.19 1546.91 1276.39 1441.2 1336.86 1351.04 C 1342.42 1342.75 1350.16 1328.91 1356.99 1322.71 L 1357.42 1322.88 L 1356.58 1324.19 C 1349.81 1334.85 1345.19 1346.02 1339.07 1356.44 C 1283.73 1450.59 1265.83 1550.08 1246.66 1656.37 C 1283.08 1574.44 1358.97 1482.11 1441.16 1445.13 C 1389.21 1485.45 1341.98 1527.74 1333.36 1596.87 C 1331.77 1610.22 1332.19 1623.73 1334.6 1636.95 C 1315.51 1653.81 1296.97 1672.44 1278.48 1690.08 C 1237.79 1729 1197.48 1768.32 1157.56 1808.04 C 1137.91 1827.64 1118.43 1847.15 1098.01 1865.93 C 1075.55 1886.58 1056.08 1912.09 1023.68 1916 C 984.142 1920.76 958.807 1904.32 932.551 1877.32 C 943.288 1881.51 1002.53 1890.13 1017.13 1891.82 C 1015.12 1872.43 1012.92 1853.06 1010.54 1833.71 C 1008.88 1819.51 1007.39 1803.35 1004.64 1789.53 C 975.756 1787.49 948.746 1787.65 919.742 1784.34 C 923.589 1816.08 927.295 1846.2 933.064 1877.71 C 925.547 1870.06 914.262 1855.27 905.904 1851.05 C 883.499 1839.74 886.17 1803.24 882.758 1780.87 C 864.197 1779.19 846.085 1779.81 827.615 1778.44 C 825.126 1778.25 823.729 1775.54 822.485 1773.76 L 820.401 1770.78 C 830.658 1769.53 871.333 1772.58 882.814 1773.44 C 895.667 1742.86 908.335 1711.18 924.242 1682.07 C 902.283 1678.95 854.365 1680.55 830.308 1680.33 C 822.158 1701.79 811.208 1732.71 799.66 1752.05 C 795.78 1749.06 793.705 1746.93 790.313 1743.47 C 796.997 1728.81 812.258 1693.5 814.458 1679.01 C 803.665 1698.59 796.769 1719.59 787.202 1739.6 C 782.757 1736 779.813 1732.94 775.849 1728.9 C 783.325 1712.86 791.382 1696.37 798.166 1680.08 C 779.126 1679.67 747.75 1679.06 729.58 1681.05 C 716.354 1670.81 692.757 1646.17 682.819 1632.91 C 684.696 1635.42 681.209 1569 680.909 1564.76 C 659.33 1566.52 638.674 1572.77 617.085 1575.79 C 614.763 1572.85 612.105 1569.88 609.648 1567.03 C 621.343 1565.77 633.296 1562.77 644.932 1560.61 C 656.827 1558.4 667.992 1557.08 679.997 1555.71 C 681.37 1548.6 683.205 1544.76 685.992 1538.13 C 699.883 1505.11 714.942 1472.6 729.801 1440 C 707.961 1441.69 676.925 1447.76 654.831 1451.56 C 648.399 1463.81 639.337 1486.44 633.758 1499.45 C 625.09 1519.67 613.493 1544.98 606.764 1565.62 C 599.323 1559.43 592.04 1550.77 584.625 1543.84 C 594.837 1522.76 612.138 1488.56 619.988 1467.6 C 602.695 1471.94 589.337 1477.23 572.851 1483.72 C 566.994 1495.06 562.888 1506.38 556.574 1517.97 L 543.991 1505.91 C 555.661 1481.8 554.715 1480.19 575.66 1464.27 C 579.805 1449.58 584.998 1423.69 587.921 1408.04 C 597.699 1355.66 606.554 1323.55 631.881 1276.72 C 629.762 1278.34 627.891 1280.17 625.887 1281.8 C 611.147 1293.78 592.891 1319.92 584.439 1336.26 C 568.538 1367 538.215 1466.48 536.576 1498.46 C 531.211 1493.55 525.781 1488.71 520.287 1483.94 C 537.934 1436.45 544.207 1382.84 567.169 1336.41 C 580.073 1310.31 596.563 1289.02 616.928 1268.33 C 617.285 1267.97 617.228 1260.77 617.625 1259.85 C 630.175 1242.52 648.501 1219.56 666.5 1208.13 C 653.804 1191.53 640.884 1175.11 629.851 1157.34 C 614.889 1133.24 642.082 1113.51 657.91 1098.64 C 672.475 1085.16 686.878 1071.5 701.118 1057.67 C 667.145 1061.4 611.027 1068.08 582.132 1046.15 C 567.369 1034.94 560.619 979.19 554.641 960.458 C 552.727 954.459 549.561 937.065 548.908 930.432 C 553.266 921.971 556.19 918.456 563.261 911.941 L 562.668 910.814 C 549.128 884.591 533.499 884.733 547.586 851.436 C 524.986 828.458 540.853 820.294 535.363 798.813 C 532.395 787.197 481.174 793.166 471.812 763.972 C 460.681 729.257 477.798 735.832 495.326 713.539 C 509.387 695.655 523.18 669.85 530.549 649.84 L 531.047 648.466 C 525.676 645.836 518.821 642.969 513.143 641.205 C 505.226 637.509 501.514 634.335 495.331 628.631 C 492.314 622.299 491.892 620.077 490.286 613.299 C 460.538 612.26 347.049 608.271 329.056 588.218 C 325.26 583.988 324.287 579.084 324.741 573.543 C 325.896 559.445 331.819 549.153 342.782 540.266 C 349.14 535.211 356.201 531.11 363.743 528.094 C 354.686 479.123 392.181 403.708 414.914 360.41 C 420.106 350.521 443.177 318.69 444.662 313.208 C 457.498 265.802 483.036 248.922 530.372 238.72 C 546.347 235.277 562.924 236.949 581.42 239.777 z M 601.593 244.401 C 663.489 261.754 720.278 293.28 772.749 330.134 C 782.635 337.077 799.215 348.859 804.923 359.23 C 806.492 362.095 807.882 365.054 809.085 368.091 C 878.32 376.43 945.964 385.447 1013.9 401.301 C 1020.51 402.844 1029.29 411.48 1036.28 412.944 C 1063.04 420.219 1088.92 428.13 1115.35 436.479 C 1146.49 446.317 1175.64 460.068 1205.59 470.945 C 1203.54 455.312 1198.93 440.472 1193.65 425.662 C 1172.56 366.702 1134.76 315.159 1084.85 277.331 C 1018.06 226.409 930.777 203.528 848.107 198.187 C 819.757 197.463 791.956 198.271 763.675 200.811 C 758.024 201.319 737.204 204.593 733.207 203.801 C 734.622 202.295 744.491 201.026 747.384 200.416 C 886.247 171.136 1043.61 203.53 1150.46 299.469 C 1205.62 349 1230.71 416.394 1247.29 486.382 C 1254.87 490.757 1263 495.705 1270.88 499.359 C 1258.29 388.98 1186.18 287.136 1089.57 234.07 C 1010.89 190.854 916.755 165.459 826.743 172.5 C 759.695 175.801 694.423 190.855 635.423 223.413 C 626.011 228.607 609.273 237.65 601.593 244.401 z M 745.821 621.022 C 734.929 619.857 724.454 618.529 713.482 618.458 C 715.313 622.769 717.12 627.089 718.904 631.419 C 696.968 668.185 686.042 677.049 645.832 692.17 C 673.901 672.946 690.005 659.693 706.762 628.717 C 703.177 631.254 693.606 637.82 687.435 639.837 C 670.342 645.424 647.82 652.034 630.124 656.905 C 629.965 656.949 624.938 655.596 624.724 655.536 C 618.524 662.707 615.949 688.798 611.938 697.802 C 611.785 698.145 609.22 698.527 609.098 698.498 C 581.89 691.979 564.989 660.23 539.968 651.025 C 531.018 675.571 520.091 701.187 505.885 723.239 C 497.405 736.402 477.751 738.15 486.007 757.588 C 495.753 780.533 540.905 770.076 548.82 794.015 C 559.892 827.5 530.347 827.931 574.012 846.136 C 586.99 837.264 590.268 836.214 606.949 838.487 C 615.421 839.641 634.583 847.505 641.062 845.054 L 639.234 842.313 L 639.776 841.586 C 648.534 844.473 664.507 856.48 672.547 862.402 C 651.714 856.299 619.861 847.848 597.79 850.521 C 591.698 851.259 582.853 855.417 576.751 857.483 L 562.334 853.882 C 560.102 859.348 557.621 864.737 555.433 870.109 C 563.132 885.81 574.402 899.117 581.976 915.961 C 634.858 923.86 664.621 914.328 714.748 900.628 C 720.912 898.943 728.444 891.909 734.226 889.766 C 739.843 887.683 744.94 893.193 749.683 889.373 C 779.991 864.96 805.579 833.336 831.997 805.184 C 831.258 781.072 847.848 761.787 862.203 743.704 C 858.891 700.681 854.195 679.063 826.063 644.629 C 813.04 684.546 753.552 726.667 730.895 760.822 C 728.17 764.928 727.122 807.825 725.933 817.84 L 724.819 817.558 L 722.811 812.48 C 721.623 796.722 722.064 774.498 721.971 758.274 C 741.283 723.937 805.747 679.131 820.115 641.775 C 810.54 628.18 777.891 602.416 761.442 598.483 C 724.934 589.753 665.45 580.917 630.994 598.129 C 641.964 597.929 653.166 596.679 664.306 596.529 C 677.448 596.352 688.972 597.187 701.985 598.253 C 702.59 600.046 702.716 599.999 702.885 601.847 C 703.881 604.708 703.812 605.079 707.485 606.738 C 720.561 612.643 733.751 612.929 745.821 621.022 z M 1327.07 748.112 C 1320.64 738.9 1314.85 730.99 1307.8 722.254 C 1297.82 709.909 1285.97 700.39 1279.55 685.836 C 1273.31 668.125 1272.81 652.071 1272.99 633.408 C 1267.75 630.653 1260.45 625.671 1255.93 623.702 C 1254.35 645.301 1255.46 692.427 1270.08 709.384 C 1276.73 717.085 1288.43 721.994 1297.7 726.316 C 1229.28 733.887 1138.28 740.521 1070.41 735.186 C 1080.55 733.096 1098.37 731.576 1109.09 730.372 L 1189.89 721.417 C 1205.65 719.561 1227.4 717.164 1242.77 713.548 C 1239.38 696.349 1231.97 677.354 1227.58 659.937 C 1222.69 640.557 1219.41 618.677 1213.99 599.759 C 1183.64 587.497 1153.04 575.857 1122.21 564.846 C 1109.6 560.245 1091.36 552.976 1078.83 549.189 C 1082.54 561.192 1095.23 581.385 1096.06 591.929 C 1098.03 617.224 1087.91 646.059 1089.94 671.651 C 1090.35 677.024 1097.67 690.154 1099.86 696.592 C 1023.91 710.921 975.451 773.518 920.993 672.046 C 904.754 641.788 903.702 601.045 923.008 571.63 C 932.911 557.073 968.063 536.134 984.322 527.119 C 952.724 519.806 923.078 513.135 892.046 503.532 C 870.253 496.787 842.914 494.472 820.582 488.938 C 811.119 487.226 788.001 482.799 779.083 482.807 C 766.085 495.225 753.155 504.263 735.448 508.502 C 707.104 515.288 674.169 513.076 645.103 513.073 C 573.061 513.065 413.078 507.593 357.089 549.623 C 350.876 554.288 342.185 561.437 341.069 569.527 C 340.897 570.773 341.149 572.342 341.273 573.564 L 342.601 574.908 C 347.441 573.928 350.231 570.828 354.464 569.084 C 378.17 559.316 406.765 553.346 431.926 549.106 C 544.325 530.446 659.115 531.498 771.153 552.215 C 787.027 555.036 810.056 558.434 824.071 564.986 C 832.812 569.072 843.834 595.822 848.596 604.643 C 855.407 617.409 862.671 630.56 870.313 642.828 C 896.574 684.991 914.768 730.989 959.42 757.949 C 970.851 764.85 983.514 763.317 996.435 763.954 C 1019.95 765.114 1043.54 764.57 1067.07 764.072 C 1124.12 763.201 1181.14 760.78 1238.06 756.813 C 1267 754.577 1299.29 749.843 1327.07 748.112 z M 748.726 1052.62 C 745.546 1048.82 743.882 1047.15 740.204 1043.82 L 687.1 1093 C 673.939 1105.04 646.382 1127.34 640.014 1142.89 C 641.998 1148.07 644.829 1152.58 648.2 1156.97 C 664.454 1178.11 679.312 1201.47 695.563 1222.48 C 685.275 1242.76 677.473 1261.66 668.168 1282.26 C 675.243 1292.86 698.248 1327.74 706.293 1334.26 C 727.232 1351.23 787.142 1372.06 812.614 1379.01 C 830.454 1369.4 851.055 1354.28 868.071 1342.63 C 882.052 1333.06 913.948 1314.09 924.69 1303.59 C 917.646 1306 911.015 1309.34 904.296 1312.49 C 878.153 1324.75 852.806 1338.63 827.982 1353.37 C 824.179 1355.63 820.146 1357.38 816.061 1359.07 C 799.671 1354.97 790.72 1349.47 775.942 1342.81 C 738.674 1326 716.559 1314.48 692.908 1279.18 L 695.013 1265.95 C 712.911 1266.74 730.841 1268.93 748.618 1271.13 C 762.629 1272.87 783.516 1277.7 797.152 1275.48 C 833.922 1269.47 944.629 1175.35 979.734 1148.27 C 1001.09 1131.6 1022.95 1115.58 1045.28 1100.24 C 1057.29 1091.86 1068.95 1084.37 1081.02 1076.34 L 1075.92 1073.79 C 1061.14 1081.18 1046.31 1087.89 1031.76 1095.66 C 965.039 1131.31 904.28 1173.3 844.171 1218.97 C 834.446 1226.35 812.918 1242.97 800.886 1244.32 C 771.898 1247.58 739.905 1237.53 709.031 1237.07 C 714.599 1230.17 720.278 1223.35 726.064 1216.63 C 718.346 1207.28 710.27 1198.07 702.46 1188.75 C 694.277 1178.98 685.346 1166.82 676.099 1158.5 C 742.91 1178.44 794.728 1156.55 852.475 1124.42 C 866.701 1116.51 883.201 1107.4 896.243 1097.74 C 871.359 1106.11 847.028 1119.92 821.57 1129.1 C 835.878 1117.93 852.34 1106.47 867.408 1096.55 C 934.822 1052.16 996.689 999.275 1070.47 965.352 C 1080.74 960.631 1091.11 955.353 1101.43 950.502 C 1152.39 926.679 1204.16 904.619 1256.64 884.361 C 1257.94 917.534 1249.72 920.044 1239.36 948.387 C 1267.07 924.896 1276.11 903.746 1268.02 867.241 C 1252.32 870.376 1219.5 883.519 1203.39 889.741 C 1100.13 930.235 1000.78 980.066 906.573 1038.61 C 891.534 1047.75 876.967 1057.5 861.855 1066.56 C 840.246 1079.3 818.335 1091.51 796.139 1103.2 C 755.163 1125.1 725.031 1143.3 677.953 1126.9 C 697.636 1101.95 726.463 1075.76 748.726 1052.62 z M 1016.19 513.652 C 1076.73 528.614 1136.2 547.615 1194.2 570.526 C 1231.22 585.296 1247.84 592.2 1281.56 615.861 L 1287.2 619.985 C 1290.7 601.582 1293.15 555.213 1293.17 535.651 C 1256.35 506.908 1224.44 495.157 1181.52 477.877 C 1131.57 457.767 1083.89 440.989 1031.29 429.124 C 1028.42 453.217 1022.06 490.857 1016.19 513.652 z M 1086.01 594.744 C 1075.96 573.753 1045.53 547.937 1023.49 540.081 C 1021.77 539.467 1020.03 538.906 1018.28 538.401 C 1005.34 543.503 974.034 566.22 960.822 575.216 C 947.92 585.121 942.875 592.008 940.725 609.226 C 939.345 620.282 938.754 635.437 939.123 646.614 C 945.279 656.367 951.782 665.792 958.243 675.305 C 967.886 689.504 973.615 698.069 990.024 704.668 L 991.464 704.475 C 1009.59 701.943 1030.88 692.206 1048.81 687.06 C 1055.26 685.207 1074.83 675.585 1080.21 679.343 C 1076.97 690.638 1041.72 697.708 1029.59 702.033 C 1018.34 706.043 1001.76 712.166 990.348 715.622 C 960.842 707.471 950.364 682.331 933.827 658.659 C 924.066 644.687 929.121 613.297 932.333 597.219 C 937.41 573.082 984.962 545.391 1006.99 530.584 L 998.472 527.954 L 997.325 528.896 C 971.934 549.53 926.697 566.555 922.361 603.52 C 918.103 639.815 926.219 664.771 949.264 693.115 C 958.158 704.054 974.921 717.719 989.262 719.17 C 1004.81 720.743 1064.1 695.629 1083.43 689.381 C 1082.42 685.968 1079.79 677.366 1079.72 674.149 C 1079.17 648.212 1084.6 620.955 1086.01 594.744 z M 1449.48 1153.01 L 1451.44 1146.85 C 1448.55 1144.64 1448.02 1143.37 1444.13 1144.05 C 1430.61 1146.39 1416.7 1154.39 1404.67 1160.36 C 1336.94 1193.93 1275.67 1258.83 1232.18 1319.63 C 1185.21 1385.29 1149.89 1466.9 1142.31 1547.67 C 1139.06 1582.41 1137.97 1615.5 1144.52 1650.37 C 1152.08 1690.59 1165.01 1716.1 1189.6 1747.84 C 1165.24 1628.3 1158.95 1539.91 1207.76 1425.62 C 1221.86 1392.81 1238.75 1361.27 1258.25 1331.35 C 1299.85 1268.73 1355.98 1207.48 1420.48 1167.85 C 1427.66 1163.44 1444.03 1157.93 1449.48 1153.01 z M 477.477 279.412 C 496.976 275.322 521.364 269.701 541.756 271.382 C 594.517 275.734 655.255 301.154 701.079 327.175 C 731.574 344.627 711.362 383.671 706.165 407.622 C 697.959 445.439 674.004 458.36 636.96 461.553 C 586.306 465.919 510.825 477.046 460.614 469.531 C 440.437 455.762 447.839 417.737 436.433 417.379 C 424.335 424.302 407.394 466.321 401.038 480.949 C 394.805 495.462 389.816 507.826 384.455 522.657 C 402.898 500.942 413.375 480.126 423.406 453.567 C 426.459 466.262 428.423 480.321 440.766 487.571 C 463.596 500.98 600.669 489.599 631.347 485.691 C 644.292 484.042 657.444 481.793 669.989 478.183 C 690.074 472.403 707.904 462.755 718.162 443.856 C 726.097 429.235 744.416 373.986 746.315 357.347 C 747.039 351.379 746.5 345.325 744.732 339.579 C 739.957 323.927 727.148 316.029 713.65 308.612 C 666.838 282.891 593.982 247.159 540.555 252.332 C 517.409 255.432 494.595 263.037 477.477 279.412 z M 1278.04 1122.86 C 1280.25 1124.33 1282.64 1125.88 1284.79 1127.4 C 1301.99 1101.59 1345.32 1086.81 1368 1067.96 C 1358.07 1058.91 1279.19 1016.18 1266.39 1014.98 C 1249.14 1020.83 1181.94 1052.09 1169.69 1062.9 C 1180.59 1069.4 1192.72 1073.19 1203.96 1079.44 C 1228.93 1093.35 1253.22 1108.74 1278.04 1122.86 z M 380.688 489.099 C 389.044 477.028 402.945 441.81 412.969 424.295 C 419.367 414.149 425.883 404.798 438.464 402.345 C 459.675 398.209 457.932 427 460.17 439.583 L 572.361 298.433 C 557.917 293.713 530.991 292.07 516.147 292.477 C 499.579 293.693 478.457 296.038 467.593 309.397 C 429.297 356.489 392.979 430.598 380.688 489.099 z M 1198.15 1232.41 C 1198.37 1230.1 1198.74 1226.55 1200.34 1224.81 C 1219.03 1204.57 1241.35 1187.85 1259.92 1167.28 C 1232.17 1150.74 1203.21 1135.5 1175.02 1119.69 C 1172.16 1118.08 1153.92 1107.15 1152.66 1106.84 C 1134.71 1120.51 1098.09 1155.28 1088.1 1174.73 C 1129.22 1194.12 1159.27 1210.68 1198.15 1232.41 z M 783.023 467.214 C 795.824 469.247 808.796 469.963 821.652 471.477 C 848.613 474.652 876.92 478.488 903.467 483.994 C 907.146 484.397 908.461 485.227 911.154 483.828 C 915.705 470.012 925.594 416.462 927.763 400.387 C 898.768 392.155 837.523 383.806 807.83 382.615 C 804.828 402.373 797.683 424.793 791.606 443.97 C 789.194 451.582 785.247 459.55 783.023 467.214 z M 1052.07 1677.16 C 1050.2 1639.71 1049.04 1599.4 1046.55 1562.27 C 1026.18 1559.23 1004.49 1558.53 983.982 1556.81 C 978.024 1556.31 959.764 1556.33 955.056 1555.27 C 955.433 1589.19 954.593 1635.06 956.688 1668.08 C 979.647 1669.1 1029.17 1673.52 1052.07 1677.16 z M 884.057 1430.99 L 851.606 1499.73 C 846.29 1511.08 835.418 1532.81 833.069 1544.17 C 851.307 1544.65 870.205 1544.2 888.25 1544.92 C 897.982 1545.15 909.05 1545.67 918.683 1545.51 C 928.004 1524.22 937.879 1504.27 947.938 1483.36 C 956.569 1465.42 963.244 1449.42 973.711 1432.29 C 954.202 1430.28 941.346 1429.98 921.815 1430.51 C 909.228 1430.58 896.641 1430.74 884.057 1430.99 z M 1048.58 1548.63 C 1062.3 1522.44 1084.76 1484.22 1101.17 1458.75 C 1071.31 1450.97 1034.94 1446.96 1003.79 1440.66 C 988.463 1472.14 970.298 1513.19 956.781 1545.31 C 988.437 1547.72 1013.67 1548.88 1045.18 1553.88 C 1047.5 1551.85 1047.33 1551.54 1048.58 1548.63 z M 925.023 1665.97 C 925.257 1655.45 924.754 1642.09 923.711 1631.63 C 921.304 1607.5 922.316 1580.04 918.775 1556.25 C 912.418 1555.25 905.931 1554.96 899.5 1554.92 C 877.499 1554.78 855.094 1552.89 833.146 1553.12 C 832.969 1563.75 833.447 1574.33 834.004 1584.95 C 835.347 1610.53 835.287 1636.16 836.095 1661.76 C 855.217 1663.3 874.368 1664.46 893.536 1665.24 C 902.385 1665.66 916.752 1666.73 925.023 1665.97 z M 735.087 1551.43 C 754.858 1548.92 774.699 1546.99 794.585 1545.66 C 803.709 1511.68 836.366 1463.95 847.766 1430.14 C 837.984 1429.77 830.651 1429.76 820.843 1430.6 C 804.571 1431.82 777.669 1433.96 761.712 1437.27 C 754.077 1454.78 715.216 1539.34 714.031 1553.39 L 714.605 1554.69 C 720.092 1552.13 728.844 1552.02 735.087 1551.43 z M 1113.54 1348.81 L 1116.48 1350.1 C 1119.97 1347.21 1135.52 1316.27 1139.34 1310.01 C 1146.4 1298.4 1152.35 1287.47 1161.44 1276.5 C 1137.66 1262.5 1094.18 1239.18 1068.78 1229.09 C 1058.33 1236.88 1024.01 1288.2 1017.91 1301.51 C 1041.61 1311.16 1092.76 1335.96 1113.54 1348.81 z M 491.229 458.538 C 508.213 459.105 523.295 458.197 540.247 456.989 C 548.104 456.527 555.572 456.224 563.355 454.922 C 591.595 415.132 629.048 367.92 660.456 329.774 C 646.739 322.753 626.119 314.338 611.538 309.125 C 604.377 318.913 596.36 328.389 588.444 337.598 C 558.246 372.731 530.893 410.085 501.14 445.585 C 497.6 449.808 494.356 453.996 491.229 458.538 z M 714.923 1563.28 C 715.979 1599.26 716.68 1628.48 720.203 1664.17 L 742.25 1664 L 805.418 1661.83 C 803.479 1627.94 799.864 1588.81 796.123 1554.93 C 791.758 1555.01 785.52 1554.93 781.342 1555.4 C 760.339 1556.77 735.672 1559.46 714.923 1563.28 z M 1008.16 1782.52 C 1020.76 1753.68 1037.16 1719.92 1047.93 1691.25 C 1018.26 1687.47 987.541 1686.3 957.617 1684.75 C 949.664 1711.9 926.299 1750.26 919.263 1777.94 C 927.024 1778.73 1005.49 1783.36 1008.16 1782.52 z M 961.237 944.898 C 958.512 959.476 955.392 976.982 954.111 991.732 C 966.271 986.063 995.34 971.38 1004.94 962.887 C 1027.26 943.129 1048.17 907.243 1058.1 879.312 C 1061.82 868.849 1076.46 820.009 1073.46 810.635 L 1072.5 809.718 C 1066.52 820.814 1063.85 836.27 1059.78 847.964 C 1055.13 861.296 1036.75 913.064 1023.4 916.977 C 1023.52 913.683 1024.82 912.887 1026.88 909.621 C 1016.88 894.672 1007.76 877.155 998.144 863.496 C 994.835 866.393 980.396 878.8 978.765 881.499 C 970.185 895.695 964.398 928.837 961.237 944.898 z M 1422.14 1051.98 L 1427.28 1055.67 C 1430.81 1054.59 1432.64 1049.15 1435.66 1047.96 C 1454.85 1040.4 1475.96 1040.37 1496 1035.29 C 1479.19 1020.78 1440.54 998.043 1418.81 990.8 C 1416.25 989.944 1411.32 990.241 1408.54 990.415 C 1377.46 992.139 1355.66 996.532 1325.07 1002.87 C 1336.22 1009.56 1353.18 1015.56 1365.33 1021.7 C 1384.49 1031.38 1403.42 1041.5 1422.14 1051.98 z M 833.459 1064.55 C 862.188 1050.49 889.602 1030.41 917.496 1014.55 C 924.425 1010.61 933.122 1005.46 939.466 1000.86 C 941.462 988.098 953.953 915.651 952.726 907.062 C 947.936 910.585 935.247 919.378 932.559 923.501 C 913.703 952.433 894.49 981.241 874.738 1009.53 C 864.998 1023.48 838.628 1049.59 833.204 1062.38 L 833.459 1064.55 z M 1321.32 1185.15 C 1313.66 1183.09 1309.6 1181.2 1302.29 1177.93 C 1304.16 1186.35 1306.92 1197.3 1308.05 1205.64 C 1296.4 1218.05 1283.38 1229.28 1271.75 1241.92 C 1259.19 1255.57 1245.92 1268.91 1233.02 1282.24 C 1228.13 1287.29 1224.43 1285.85 1218.15 1284.78 C 1217.55 1313.9 1212.03 1317.23 1197.34 1341.23 L 1167.36 1390.55 C 1156.91 1407.85 1147.31 1427.55 1136.14 1444.17 C 1132.8 1443.23 1128.94 1442.27 1125.69 1441.2 C 1131.39 1426.72 1138.77 1415.77 1146.99 1402.69 C 1139.91 1398.27 1134.21 1394.92 1126.84 1391.04 C 1119.98 1399.78 1099.35 1430.64 1094.59 1440.84 C 1115.99 1446.73 1125.61 1452.64 1145.37 1461.19 C 1177.01 1362.64 1250.88 1254.85 1332.66 1190.45 C 1350.48 1176.42 1387.39 1153.8 1407.65 1140.59 C 1407.89 1140.43 1408.44 1138.12 1408.5 1137.41 L 1409.4 1139.95 C 1413.47 1139.22 1428.73 1132.05 1435.06 1129.63 C 1454.45 1122.22 1520.61 1110.27 1540.08 1112.67 C 1542.85 1121.46 1537.62 1118.07 1538.31 1124.81 C 1541.85 1127.66 1554.65 1133.51 1558.81 1132.47 C 1559.43 1127.04 1552 1104.25 1544.1 1104.85 C 1540.79 1107.63 1541.73 1107.15 1540.03 1111.83 C 1539.21 1105.47 1538.98 1106.53 1544.39 1102.26 L 1544.29 1101.51 C 1523.08 1100.01 1472.73 1109.56 1452.11 1114.75 L 1444.48 1115.74 L 1440.25 1113.3 C 1437.39 1114.42 1433.71 1120.34 1430.48 1122.86 C 1425.84 1126.47 1421.46 1128.83 1416.39 1131.68 L 1416.94 1131.73 C 1413.1 1133.65 1409.78 1134.08 1406.69 1136.9 C 1380.22 1146.71 1345.56 1174.26 1321.32 1185.15 z M 1213.66 1254.19 C 1201.13 1249.61 1176.22 1234.44 1163.22 1227.39 C 1138.86 1214.45 1114.06 1202.35 1088.87 1191.12 C 1087.97 1196.63 1087.43 1202.09 1086.82 1207.64 C 1112.33 1218.63 1138.34 1234.36 1162.51 1248.13 C 1179.52 1257.81 1196.8 1267.47 1213.63 1277.4 C 1230.99 1263.1 1274.57 1219.91 1289.93 1200.08 C 1291.59 1197.93 1289.71 1192.96 1288.56 1190.29 L 1289.7 1189.01 C 1289.02 1180.49 1286.08 1173.27 1282.87 1165.42 C 1282.85 1170.53 1281.64 1191.42 1284.99 1193.92 L 1283.94 1194.07 C 1274.1 1204.11 1224.29 1248.55 1213.66 1254.19 z M 641.264 497.533 C 636.355 498.374 631.466 499.162 626.596 500.208 C 634.913 500.157 641.267 500.062 649.511 499.273 C 674.357 499.799 727.072 493.732 739.726 470.344 C 754.499 443.038 764.866 399.908 773.864 369.349 C 779.714 349.48 765.91 342.791 751.868 333.399 C 752.852 336.828 753.924 341.127 754.648 344.602 C 756.048 351.603 756.267 358.79 755.295 365.863 C 752.651 385.129 735.062 438.244 724.44 454.912 C 708.5 479.923 669.288 492.141 641.264 497.533 z M 618.839 449.86 C 635.453 447.624 666.821 444.75 676.288 430.26 C 688.334 411.822 699.373 371.35 700.004 349.774 L 692.123 343.911 C 675.34 366.718 658.14 389.217 640.534 411.396 C 632.273 421.728 616.329 439.894 609.941 450.478 C 612.346 451.503 615.806 450.369 618.839 449.86 z M 1313.5 1152.94 C 1305.06 1150.53 1298.1 1146.1 1289.39 1144.16 L 1289.87 1143.74 L 1289.62 1142.69 C 1284.62 1139.52 1282.31 1137.99 1276.71 1135.67 L 1275.26 1136.95 C 1272.24 1129.01 1185.47 1084 1173.22 1078.55 C 1172.4 1078.17 1171.57 1077.81 1170.73 1077.46 L 1167.51 1089.61 C 1199.68 1105.13 1230.33 1124.8 1262.14 1141.04 C 1263.77 1141.87 1265.21 1141.56 1266.9 1141.32 L 1266.43 1143.26 C 1272.05 1147.7 1282.3 1153.44 1288.82 1157.21 L 1290.54 1156.94 C 1292.53 1162.73 1312.02 1172.1 1318.18 1176.52 C 1333.62 1167.31 1349.58 1155.5 1365.23 1145.96 C 1383.5 1134.82 1402.69 1124.06 1420.44 1112.33 C 1418.02 1104.53 1414.86 1097.98 1411.49 1090.59 C 1403.85 1086.38 1386.03 1071.91 1379.85 1072.6 C 1378.6 1076.87 1390.85 1095.51 1393.02 1104.17 C 1389.47 1106.72 1384.78 1109.19 1380.94 1111.37 C 1357.94 1124.41 1336.07 1139.17 1313.5 1152.94 z M 612.858 1368.52 C 629.032 1364.85 643.2 1358.96 661.778 1355.03 C 664.647 1358.96 665.795 1361.48 667.963 1365.77 C 666.452 1375.19 661.658 1386.65 658.387 1395.99 C 655.946 1400.79 653.337 1412.85 651.935 1418.63 C 655.08 1413.03 658.416 1403.67 660.134 1397.41 C 667.688 1379.75 676.302 1355.72 686.463 1340.17 C 680.19 1331.58 672.591 1322.93 666.702 1314.09 C 663.075 1308.65 660.276 1299.63 656.352 1294.39 L 651.99 1296.23 C 648.1 1296.31 643.608 1292.74 640.612 1290.43 L 639.701 1289.72 C 626.301 1319.33 620.187 1337 612.858 1368.52 z M 952.683 494.292 C 965.071 497.204 978.664 499.434 990.549 502.416 C 994.231 474.916 999.33 446.507 1003.94 419.055 C 994.218 415.567 976.237 411.215 965.999 409.68 C 961.08 437.806 956.641 466.014 952.683 494.292 z M 940.717 1415.03 C 951.044 1415.92 962.541 1416.37 972.597 1417.73 C 984.721 1393.58 997.424 1367.86 1010.19 1344.14 C 991.527 1329.12 992.896 1325.93 1001.31 1304.01 C 1004.2 1300.33 1009.02 1289.79 1010.98 1285.44 C 1006.81 1289.69 999.944 1296.57 997.592 1301.97 C 977.881 1330 950.569 1382.03 940.717 1415.03 z M 479.693 456.875 C 521.828 409.449 558.366 354.035 601.299 306.788 C 597.17 305.256 587.97 301.537 584.124 300.511 C 565.307 320.806 545.856 348.307 528.451 370.156 C 519.408 381.507 464.73 446.911 464.82 454.358 C 468.178 457.916 472.687 457.731 477.537 458.01 C 478.271 457.684 479.255 457.385 479.693 456.875 z M 543.039 619.406 C 543.139 621.228 543.275 622.499 543.482 624.3 C 534.407 629.778 524.008 613.202 522.323 605.9 C 521.619 602.844 522.215 596.207 522.411 592.858 C 524.042 596.053 526.069 600.815 528.794 602.564 C 529.565 599.264 529.25 598.046 531.236 595.942 L 532.258 597.859 C 531.815 603.969 531.188 604.714 534.788 608.979 C 534.883 603.114 535.168 599.949 535.87 594.162 C 537.675 597.42 540.913 604.103 543.523 606.217 C 547.315 604.064 546.678 601.03 548.032 600.033 C 552.33 596.869 556.483 596.009 560.079 591.483 C 568.677 588.43 631.407 566.327 633.815 562.994 C 631.933 560.967 630.65 561.01 627.988 560.943 C 608.861 560.464 523.457 577.466 512.346 589.696 C 508.056 594.418 506.765 603.988 507.197 610.081 C 507.598 616.151 510.553 621.767 515.33 625.535 C 537.141 642.579 559.102 640.429 580.44 624.68 C 567.356 626.632 554.197 628.372 543.039 619.406 z M 610.284 1454.29 C 615.681 1453.07 619.702 1452.67 622.543 1447.54 C 628.534 1436.71 632.992 1420.3 636.553 1408.3 L 636.192 1407.31 L 634.757 1407.27 C 630.68 1408.02 626.268 1408.74 622.244 1409.58 C 620.898 1415.02 608.571 1452.95 608.875 1453.96 L 610.284 1454.29 z M 613.755 961.145 C 612.086 955.997 591.548 954.002 585.762 950.936 C 582.23 949.066 574.174 945.816 570.293 946.098 C 571.774 943.81 577.684 938.253 580.026 936.608 L 582.151 937.066 C 583.278 939.496 583.245 939.57 584.953 941.597 C 589.295 941.972 631.905 939.435 636.89 938.538 L 636.832 937.866 C 629.864 936.05 625.39 936.899 618.377 936.08 C 599.47 933.872 585.764 932.447 567.117 928.278 C 566.779 934.732 565.858 939.81 569.529 945.301 C 570.197 959.584 583.184 1021.35 592.361 1034.59 C 594.697 1037.96 607.305 1040.63 611.86 1042.34 C 639.367 1047.82 667.678 1045 694.877 1039.08 C 706.424 1036.22 718.359 1033.17 729.381 1028.71 C 722.955 1026.33 718.648 1029.29 714.187 1026.56 C 705.562 1028.58 696.697 1030.83 687.963 1032.16 C 667.474 1034.7 648.548 1036.19 627.844 1034.3 C 622.416 1033.58 619.305 1033.62 615.669 1029.74 C 617.439 1023.81 617.719 1024.36 623.374 1021.68 C 619.787 1019.6 613.442 1018.48 609.198 1017.49 C 596.939 1002.97 588.613 978.176 577.319 966.636 C 587.598 970.403 593.64 972.366 604.508 973.475 L 615.393 974.029 C 634.461 974.13 656.465 973.098 675.001 968.642 C 678.252 968.243 679.284 968.321 682.2 966.706 L 682.009 965.429 C 677.025 963.396 674.916 963.816 669.568 963.909 C 649.284 962.845 633.088 960.096 614.744 958.908 L 613.755 961.145 z M 1516.42 1144.06 L 1524.28 1149.15 L 1529.92 1151.2 L 1530.94 1154.01 C 1541.88 1151.62 1551.64 1161.25 1559.69 1158.9 C 1560.15 1155.59 1559 1155.58 1556.18 1151.81 C 1554.15 1150.89 1552.07 1150.13 1550 1149.32 C 1544.33 1146.47 1538.31 1144.47 1532.35 1142.31 C 1507.32 1134.75 1490.38 1134.74 1465.24 1138.57 C 1466.3 1141.02 1466.32 1141.35 1467.96 1143.41 C 1478.11 1145.13 1506.22 1145.23 1516.42 1144.06 z M 938.216 1683.49 C 923.79 1712.88 907.694 1744.2 895.281 1774.21 C 896.951 1786.94 902.777 1837.02 908.515 1846.18 C 911.098 1844.45 911.731 1844.85 911.982 1841.94 C 913.068 1829.38 904.173 1787.62 905.56 1777.8 C 908.928 1753.94 937.292 1707.23 944.024 1686.23 C 941.841 1684.42 940.917 1684.37 938.216 1683.49 z M 1055.49 1428.35 C 1064.62 1407.56 1074.7 1391.84 1087.91 1373.53 C 1082.93 1370.92 1076.01 1366.47 1070.56 1367.03 C 1071.19 1370.8 1073.02 1372.69 1075.26 1375.83 L 1074.62 1377.18 C 1065.55 1396.11 1055.39 1407.34 1047.38 1428.6 C 1048.89 1431.6 1050.88 1431.55 1053.99 1430.96 L 1055.49 1428.35 z M 1016.52 431.154 C 1017.2 427.037 1018.41 422.019 1016.86 418.313 L 1015.45 417.782 C 1013.09 420.698 1013.3 425.153 1013.39 428.854 C 1010.9 440.448 996.278 504.868 999.021 510.837 C 1006.35 510.111 1014.62 441.64 1016.52 431.154 z M 1050.12 1356.72 C 1045.44 1354.92 1041.65 1353.44 1036.79 1352.07 C 1033.05 1365.65 999.626 1410.19 1003.63 1419.42 C 1010.69 1414.02 1033.89 1367.91 1042.21 1358.69 C 1042.65 1358.21 1045.41 1357.78 1046.13 1357.71 C 1048.11 1357.51 1048.19 1357.35 1050.12 1356.72 z M 960.988 797.6 C 947.482 808.144 934.693 828.957 924.104 834.695 L 922.614 834.459 C 912.04 832.877 902.912 826.705 893.64 821.342 C 886.002 816.239 858.163 800.336 859.616 792.267 C 861.88 779.696 891.284 747.389 899.261 737.128 L 895.388 728.933 C 890.923 733.418 885.102 739.26 880.978 744.45 C 869.054 759.459 832.483 791.341 852.797 810.977 C 859.272 817.235 877.715 827.799 886.089 832.459 L 888.781 834.327 C 892.532 832.864 897.414 830.914 901.162 832.494 C 909.039 839.167 907.978 844.857 918.91 848.475 C 923.118 847.698 924.963 847.236 928.228 844.731 C 937.778 837.092 956.519 809.415 960.988 797.6 z M 929.858 498.264 C 934.338 491.342 944.943 413.892 946.77 400.567 C 944.796 397.801 943.939 397.942 940.616 396.29 C 936.927 418.435 932.897 440.52 928.526 462.54 C 926.78 471.734 923.289 487.751 922.505 496.44 C 925.341 498.083 926.629 497.957 929.858 498.264 z M 1179.1 1592.64 C 1180.02 1584.55 1185.49 1547.57 1184.39 1542.35 L 1182.91 1542.01 C 1181.16 1541.59 1181.8 1541.87 1180.7 1541.26 C 1178.79 1550.86 1174.8 1585.28 1178.04 1593.07 C 1179.09 1592.76 1178.88 1592.95 1179.1 1592.64 z M 1602.25 1159.5 C 1612.8 1167.97 1628.72 1181.91 1638.83 1189.4 C 1640.92 1191.9 1640.71 1192.29 1643.5 1193.43 L 1646.45 1188.56 C 1642.46 1184.99 1639.62 1182.17 1635.94 1178.34 C 1634.53 1174.65 1616.87 1157.92 1612.78 1155.25 C 1607.03 1149.83 1593.85 1135.94 1586.35 1134.95 C 1581.54 1137.78 1584.26 1143.44 1585.57 1148.26 C 1590.2 1151.32 1598.14 1156.23 1602.25 1159.5 z M 844.547 855.002 C 832.773 860.211 833.614 875.962 847.894 877.372 C 860.241 869.318 861.898 857.509 844.547 855.002 z M 694.545 627.765 C 697.888 625.895 701.617 623.914 704.837 621.894 C 698.548 615.736 692.58 612.76 684.139 610.365 C 681.997 619.034 679.995 627.737 678.134 636.471 C 683.571 633.644 689.247 630.809 694.545 627.765 z M 749.649 1008.72 L 757.677 1005.83 C 742.426 987.733 714.401 956.39 701.221 937.861 C 693.96 940.364 696.493 943.001 690.638 946.378 C 697.776 958.089 728.115 998.273 737.72 1008.23 L 749.649 1008.72 z M 1138.5 788.993 C 1143.75 788.508 1149.48 788.119 1154.64 787.273 C 1220.11 781.296 1271.25 776.125 1335.38 761.369 L 1329.59 753.504 C 1313.09 755.357 1287.51 761.495 1269.39 764.293 C 1226.8 770.441 1183.96 774.74 1141 777.177 C 1133.58 777.32 1116.48 777.672 1109.43 778.554 C 1103.29 778.77 1085.89 778.86 1080.97 779.915 C 1052.41 778.916 1023.25 779.674 994.551 778.412 C 956.13 776.721 946.941 770.701 919.246 745.236 C 923.989 754.846 943.472 781.785 958.347 785.371 C 988.565 792.655 1044.04 794.608 1075.83 790.744 C 1076.56 790.655 1079.06 787.309 1079.5 786.735 L 1082.18 786 L 1078.14 791.45 C 1091.35 793.035 1123.81 788.303 1138.5 788.993 z M 1163.26 1098.42 L 1161.31 1102.04 C 1162.39 1104.46 1175.23 1110.07 1178.57 1111.78 C 1195.67 1120.71 1212.7 1129.78 1229.65 1138.99 C 1234.13 1141.4 1248.13 1149.76 1252.38 1150.85 L 1253.42 1148.37 C 1245.2 1141.08 1173.75 1102.32 1163.26 1098.42 z M 1605.64 1195.98 L 1608.87 1198.57 C 1636.22 1221.63 1661.66 1251.44 1684.41 1278.94 C 1686.19 1281.09 1685.95 1280.9 1688.44 1280.97 L 1688.98 1278.4 C 1684.19 1258.79 1631.79 1202.47 1614.55 1188.45 C 1609.36 1184.21 1601.41 1179.91 1595.5 1175.74 C 1589.22 1173.81 1580.36 1169.63 1575.61 1164.94 C 1573.56 1162.92 1572.55 1161.91 1569.63 1161.65 L 1568.58 1162.82 C 1571.49 1175.35 1599.36 1179.88 1605.64 1195.98 z M 724.627 927.536 L 727.884 928.563 C 738.97 947.766 771.005 976.01 778.133 998.227 C 786.262 996.133 791.973 994.624 799.788 991.707 C 788.69 983.432 781.723 973.411 772.509 963.077 C 763.465 953.116 754.314 943.252 745.058 933.486 C 747.639 935.377 751.239 938.826 754.325 937.948 C 753.895 933.334 739.595 918.376 735.788 913.934 L 733.028 908.514 L 732.152 908.488 C 729.077 913.507 729.402 913.325 721.781 914.878 C 715.411 916.175 703.827 919.465 697.85 920.224 L 690.005 922.184 L 689.568 926.413 C 694.139 929.461 700.805 926.306 705.964 924.856 C 712.529 923.498 719.445 922.518 724.627 927.536 z M 795.981 901.582 C 797.755 904.568 800.932 911.061 804.295 912.471 C 807.644 913.875 808.629 912.071 811.901 911.361 L 810.454 907.518 C 812.307 907.618 814.16 907.706 816.014 907.781 L 816.436 907.01 L 812.369 900.983 C 814.568 899.351 813.892 899.823 816.562 898.857 C 816.545 895.12 812.893 892.128 810.068 888.881 C 804.098 893.657 801.209 896.074 795.981 901.582 z M 1438.58 1084.81 C 1437.04 1083.68 1434.8 1081.53 1433.3 1080.19 C 1429.79 1070.14 1336.89 1020.68 1324.41 1018.07 L 1324.38 1019.09 C 1337.04 1033.44 1376.03 1051.81 1391.91 1063.77 C 1398.15 1068.46 1407.71 1072.72 1414.28 1077.62 L 1415.37 1078.44 C 1422.82 1080.1 1429.29 1082.35 1434.68 1088.04 C 1436.69 1092.17 1441.58 1095.53 1445.29 1098.62 C 1451.18 1096.47 1454.03 1096.04 1459.89 1094.51 C 1464.33 1093.35 1469.08 1090.36 1473.77 1088.67 C 1479.08 1088.38 1484.39 1088 1489.7 1087.53 L 1496.23 1090.24 C 1497.96 1091.82 1540.13 1087.12 1548.78 1088.38 L 1554.04 1085.97 C 1548.29 1073.08 1532.75 1064.16 1521.16 1056.05 L 1519.85 1058.58 C 1522.51 1061.16 1526.61 1064.35 1527.42 1067.71 C 1522.86 1075.46 1496.6 1077.02 1487.38 1078.37 L 1476.78 1080.49 C 1472.32 1080.49 1471.93 1080.53 1467.67 1081.69 C 1463.93 1085.87 1446.76 1089.97 1441.28 1087.79 L 1438.58 1084.81 z M 677.901 1226.66 C 676.218 1224.93 671.583 1219.93 669.924 1218.73 C 662.879 1224.36 660.386 1229.68 655.508 1236.99 C 650.337 1244.73 641.613 1252.9 637.64 1261.09 L 638.083 1263.45 C 641.174 1265.16 641.685 1264.26 646.148 1263.21 L 657.269 1261 L 677.901 1226.66 z M 905.529 795.252 C 902.201 800.081 900.703 802.272 898.09 807.702 C 901.731 811.147 904.912 814.829 909.477 816.582 C 911.774 815.361 910.837 816.15 912.365 814.31 C 915.24 811.623 918.505 808.398 921.571 806.016 C 915.782 802.701 910.872 799.232 905.529 795.252 z M 1074.49 1865.27 C 1076.16 1863.02 1077.98 1860.31 1079.97 1858.39 C 1069.24 1799.23 1071.31 1784.1 1094.87 1731.24 L 1090.34 1725.65 C 1062.2 1777.26 1057.4 1806.81 1073.53 1865.32 L 1074.49 1865.27 z M 652.989 625.947 C 656.665 629.086 658.338 630.62 662.419 633.083 L 674.403 632.346 C 675.783 624.338 676.784 619.936 679.064 612.143 L 677.799 612.293 C 675.651 616.161 674.116 621.289 671.084 623.26 C 664.103 622.422 656.781 617.764 652.538 620.528 C 652.515 623.09 652.421 623.486 652.989 625.947 z M 1069.69 545.638 C 1063.14 544.061 1047.62 539.147 1042.65 538.927 C 1062.91 550.479 1058.19 548.801 1073.37 562.513 C 1070.82 556.872 1070.43 551.736 1069.69 545.638 z M 629.479 1395.47 C 627.52 1396.01 623.917 1397.13 622.061 1397.5 C 616.694 1398.7 610.729 1399.89 605.451 1401.22 C 600.899 1422.4 596.865 1439.04 590.376 1459.64 L 599.908 1456.84 C 603.26 1439.28 611.846 1423.6 616.094 1406.29 C 618.775 1405.16 621.676 1403.83 624.447 1403.04 C 628.953 1401.59 633.771 1400.24 638.332 1398.87 C 643.681 1398.13 650.527 1398.09 650.22 1391.57 C 644.675 1390.55 635.077 1393.88 629.479 1395.47 z M 1065.01 1558.32 C 1081.45 1533.9 1099.53 1494.36 1115.67 1466.35 L 1115.43 1465.1 L 1110.89 1462.7 C 1089.27 1494.91 1070.3 1526.65 1054.11 1561.83 C 1055.49 1570.89 1055.75 1585.75 1056.25 1595.46 C 1057.19 1612.26 1058.29 1629.05 1059.56 1645.82 C 1060.03 1652.31 1060.79 1666.63 1062.11 1672.53 L 1063.55 1672.4 C 1064.83 1666.61 1064.59 1644.02 1064.65 1636.83 C 1065.03 1610.67 1065.15 1584.49 1065.01 1558.32 z M 1007 1311.84 C 1016.02 1320.87 1025.22 1326.05 1037.07 1330.8 C 1047.56 1335.16 1058.01 1340.14 1068.33 1344.91 L 1072.14 1344.82 L 1072.94 1342.16 C 1070.16 1338.14 1047.87 1329.44 1041.72 1326.77 C 1031.64 1321.54 1017.82 1315.46 1007 1311.84 z M 1653.41 1175.31 C 1654.88 1161.85 1579.48 1089.32 1567.79 1086.94 C 1568.31 1091.43 1577.48 1107.3 1580.64 1110.45 C 1603.13 1132.86 1628.54 1152.07 1650.18 1175.56 C 1650.43 1175.75 1650.69 1175.94 1650.95 1176.13 L 1653.41 1175.31 z M 1103.71 1381.48 C 1098.47 1389.17 1072.53 1427.74 1070.89 1434.53 C 1073.12 1436.21 1074.73 1436.09 1077.53 1436.39 C 1086.2 1417.46 1101.33 1400.59 1109.55 1384.39 C 1107.25 1381.98 1107.39 1382.62 1103.71 1381.48 z M 800.316 1085.07 L 802.161 1083.34 C 799.48 1076.08 767.821 1031.12 761.936 1030.35 C 760.688 1032.8 758.414 1036.02 759.822 1038.23 C 769.148 1052.88 783.849 1073.95 793.357 1087.68 C 796.383 1087.83 797.688 1086.64 800.316 1085.07 z M 1123.04 1239.33 C 1122.63 1237.35 1123.05 1237.17 1120.39 1235.87 C 1108.04 1229.83 1092.19 1221.24 1079.48 1216.34 L 1078.37 1220.56 C 1078.78 1221.15 1120.15 1239 1123.04 1239.33 z M 1168.13 1262.79 C 1164.99 1260.53 1163.6 1259.04 1159.76 1258.66 L 1158.95 1259.36 C 1161.27 1261.97 1161.86 1261.93 1165.03 1263.32 L 1168.13 1262.79 z M 822.925 969.135 C 818.081 971.881 811.531 974.861 808.057 978.769 C 807.71 981.357 808.197 981.933 809.002 984.496 C 812.044 981.758 822.55 973.086 823.377 969.885 L 822.925 969.135 z M 803.011 919.175 C 800.981 914.786 797.707 907.975 793.96 904.885 C 794.58 910.91 797.504 916.318 803.011 919.175 z M 846.451 918.598 C 854.596 910.203 904.866 863.978 897.857 855.604 L 894.777 855.436 C 878.224 874.352 860.188 894.903 842.19 912.371 C 838.855 915.583 835.801 918.556 832.613 921.944 L 832.588 926.571 C 834.813 928.57 833.49 927.78 837.703 927.61 C 841.162 924.477 843.739 922.44 846.451 918.598 z M 1320.37 964.316 C 1329.73 969.459 1337.73 973.348 1345.51 980.868 C 1349.42 980.675 1353.92 980.334 1357.78 980.352 C 1347.87 961.31 1332.07 954.318 1312.46 948.146 L 1277.41 937.23 C 1262.19 951.87 1248.38 957.589 1235.43 969.277 L 1237.1 968.885 C 1277.26 959.201 1278.7 943.206 1320.37 964.316 z M 745.5 1422.99 C 754.867 1421.91 762.65 1421.34 772.077 1420.87 L 762.98 1394.67 C 753.38 1388.84 740.039 1383.6 729.668 1378.04 C 723.345 1395.45 714.513 1410.93 706.374 1427.47 C 719.65 1425.74 732.164 1424.15 745.5 1422.99 z M 1145.05 1346.42 C 1148.39 1343.8 1149.83 1341.22 1150.88 1336.99 C 1146.31 1339.18 1146.15 1341.66 1145.05 1346.42 z M 1034.67 1426.9 C 1044.09 1410.52 1053.23 1393.97 1062.07 1377.28 C 1055.9 1374 1052.16 1372.18 1045.69 1369.6 C 1035.79 1388.27 1025.32 1403.74 1017.06 1423.51 C 1023.29 1424.89 1028.36 1425.95 1034.67 1426.9 z M 621.732 640.618 C 626.474 644.296 628.098 645.513 632.151 650.098 L 645.675 645.153 L 660.033 639.382 C 647.965 634.384 642.191 630.793 636.993 618.401 C 636.352 616.873 636.027 615.038 634.941 613.895 C 627.498 622.195 624.59 629.86 621.732 640.618 z M 1573.28 1129.15 L 1571.64 1131.3 C 1572.52 1134.75 1573.72 1141.03 1576.54 1143.07 C 1576.84 1138.72 1574.67 1133.49 1573.28 1129.15 z M 1032.35 1896.33 L 1036.66 1895.54 C 1040.08 1889.9 1030.58 1801.73 1029.09 1787.55 C 1032.94 1779.81 1063.56 1704.17 1063.5 1700.98 C 1062.33 1698.85 1061.69 1697.25 1060.04 1695.53 C 1052.22 1719.92 1029.16 1760.26 1018.1 1788 C 1021.06 1806.7 1023.45 1825.49 1025.26 1844.35 C 1026.87 1859.85 1028.48 1881.95 1032.35 1896.33 z M 1027.81 1350.82 C 1024.89 1349.52 1021.3 1348.03 1018.56 1346.54 L 1017.99 1347.74 C 1011.77 1360.57 984.811 1405.78 982.311 1417.29 C 985.799 1418.45 986.344 1418.39 989.911 1418.74 C 998.298 1401.19 1016.66 1365.67 1027.81 1350.82 z M 662.63 931.346 C 658.048 931.775 654.797 931.549 651.129 934.152 L 650.904 935.783 C 653.123 938.438 653.971 938.502 657.164 939.701 C 662.921 938.331 664.907 938.205 668.304 933.215 L 667.874 931.506 C 665.271 930.694 665.365 930.86 662.63 931.346 z M 1130.86 1494.68 C 1096.19 1544.74 1075.73 1637.21 1095.91 1695.94 C 1098.62 1703.82 1102.68 1709.49 1107.08 1716.41 L 1107.65 1717.69 C 1107.88 1713.28 1101.73 1689.8 1100.42 1683.83 C 1094.93 1658.93 1093.86 1633.27 1097.26 1608 C 1098.72 1596.84 1101.18 1585.83 1104.61 1575.11 C 1112.1 1550.94 1124.17 1522.36 1132.22 1497.97 C 1132.03 1497.12 1131.84 1496.28 1131.65 1495.44 L 1130.86 1494.68 z M 937.175 1659.63 L 938.324 1664.66 L 939.593 1665.29 C 946.336 1651.95 938.556 1566.37 943.24 1544.76 C 947.385 1525.64 986.657 1455.4 984.728 1444.75 C 979.47 1451.25 931.726 1539.49 931.177 1546.12 C 928.646 1576.61 936.704 1627.05 937.175 1659.63 z M 1149.74 1393.04 C 1164.71 1365.44 1187.18 1334.73 1199.2 1306.02 C 1201.09 1301.51 1200.14 1284.91 1199.91 1278.84 L 1184.72 1271.44 L 1182.56 1276.16 C 1186.36 1281.74 1191.01 1290.57 1188.17 1297.54 C 1177.24 1324.39 1160.86 1349.9 1143.99 1373.41 C 1140.36 1378.48 1137.63 1375.37 1134.99 1380.12 C 1137.4 1383.74 1145.95 1390.02 1149.74 1393.04 z M 709.007 1364.68 C 701.44 1381.1 695.292 1398.3 687.575 1414.7 C 685.178 1419.79 682.562 1425.47 681.066 1430.89 C 683.495 1432.44 683.97 1431.79 687.494 1431.65 L 689.257 1430.59 C 699.385 1410.48 710.177 1390.53 720.166 1370.47 C 716.261 1368.3 713.109 1366.53 709.007 1364.68 z M 692.358 1350.42 C 680.734 1373.71 667.156 1409.01 656.61 1434 C 658.466 1435.42 660.866 1435.08 663.698 1435.33 C 664.69 1434.8 665.682 1434.27 666.674 1433.74 C 676.165 1413.36 687.404 1375.42 698.526 1356.97 C 697.024 1355.31 693.912 1351.68 692.358 1350.42 z M 1116.49 807.627 C 1117.42 811.03 1121.74 815.921 1124.09 818.8 C 1141.87 840.624 1158.95 862.504 1173.18 886.842 L 1181.76 882.956 L 1185.41 881.006 C 1186.53 876.049 1146.84 830.539 1141.43 822.283 C 1139.1 818.723 1132.67 810.307 1129.74 806.7 C 1125.44 806.953 1120.73 807.109 1116.49 807.627 z M 844.751 827.225 C 844.181 826.153 843.602 825.086 843.015 824.024 C 841.313 820.874 842.161 821.377 839.341 819.603 L 837.101 821.359 C 814.291 846.136 782.099 879.621 757.945 902.58 C 764.525 911.773 782.458 938.161 790.029 943.672 C 791.44 941.995 792.906 940.017 794.268 938.268 C 789.43 927.696 778.557 920.846 772.798 905.907 C 780.044 897.299 793.925 884.312 802.227 875.664 C 816.963 860.019 831.146 843.862 844.751 827.225 z M 743.011 1439.84 C 727.891 1467.16 702.147 1518.59 691.625 1547.99 C 689.522 1553.86 695.129 1636.66 697.153 1645.84 L 699.002 1648.22 C 705.09 1641.92 695.612 1560.27 702.621 1540.6 C 707.864 1525.89 744.85 1445.52 743.011 1439.84 z M 792.671 364.474 C 790.281 362.141 788.262 359.728 785.255 358.408 C 783.944 387.286 764.976 461.363 742.527 483.004 C 736.087 489.212 724.315 494.528 715.979 498.485 C 719.433 498.394 720.777 497.762 724.006 496.705 C 757.703 488.8 771.815 472.794 779.952 440.074 C 784.467 421.921 792.084 403.734 794.341 384.96 C 794.926 380.099 793.257 369.373 792.671 364.474 z M 865.815 1431.88 C 841.971 1467.33 826.947 1508.66 806.989 1545.82 C 811.276 1578.44 812.549 1619.3 819.174 1650.81 C 819.916 1653.33 819.718 1654.49 821.385 1655.67 C 824.141 1644.12 820.883 1628.62 821.638 1616.81 C 823.069 1594.44 815.97 1563.98 819.845 1542.32 C 822.71 1526.3 867.289 1443.04 866.393 1432.52 L 865.815 1431.88 z M 575.719 454.09 L 592.042 452.72 C 599.129 451.081 608.794 435.199 613.862 428.871 C 626.99 412.48 640.329 396.182 653.253 379.631 C 662.579 367.993 673.769 350.578 682.999 340.026 C 677.762 337.35 674.408 335.664 668.884 333.553 C 656.507 351.92 636.365 375.808 622.286 393.234 C 606.238 413.097 591.303 434.549 575.719 454.09 z M 1342.78 1241.95 C 1278.88 1304.65 1229.88 1380.9 1199.4 1465.08 C 1194.53 1478.2 1178.12 1524.46 1185.7 1535.72 C 1192.16 1520.45 1194.72 1498.52 1200.42 1482.03 C 1214.12 1442.4 1232.8 1405.8 1253.81 1369.59 C 1273.64 1335.27 1295.9 1302.41 1320.43 1271.28 C 1323.4 1267.46 1342.95 1244.18 1343.2 1242.35 L 1342.78 1241.95 z" fill="rgb(47,16,43)" transform="translate(0,0)"></path>
<path d="M 578.45 743.446 C 582.925 745.742 587.31 752.926 588.101 757.751 C 591.386 777.811 575.292 778.726 565.329 784.769 C 558.369 782.717 536.713 771.952 526.469 768.019 L 509.33 760.67 C 525.414 756.896 562.368 745.951 578.436 756.499 C 578.266 756.388 581.201 759.346 581.411 759.553 C 583.095 754.616 580.22 748.404 578.45 743.446 z" fill="rgb(47,16,43)" transform="translate(0,0)"></path>
<path d="M 579.799 889.452 C 590.379 889.712 595.427 892.583 607.999 891.918 L 597.9 899.653 C 595.205 902.076 593.16 904.437 590.727 907.126 C 586.378 901.004 582.733 896.389 579.799 889.452 z" fill="rgb(47,16,43)" transform="translate(0,0)"></path>
<path d="M 569.961 721.698 C 588.72 729.359 600.164 749.474 608.777 766.454 C 607.535 765.736 570.679 723.002 569.961 721.698 z" fill="rgb(47,16,43)" fill-opacity="0.988235" transform="translate(0,0)"></path>
<path d="M 797.208 522.119 C 807.74 520.801 838.57 527.162 848.664 531.688 C 873.047 542.622 889.673 568.692 899.463 592.409 C 896.577 590.18 881.196 570.875 877.682 566.714 C 850.481 534.507 834.671 534.308 797.208 522.119 z" fill="rgb(47,16,43)" transform="translate(0,0)"></path>
<path d="M 1191.89 507.235 C 1215.44 505.584 1231.57 533.964 1205.87 546.61 C 1196.16 547.525 1188.15 546.125 1182.46 537.338 C 1179.28 532.484 1178.31 526.505 1179.8 520.894 C 1181.71 513.492 1185.71 510.808 1191.89 507.235 z M 1203.18 535.226 C 1213.95 525.611 1206.08 517.448 1194.5 516.736 C 1185.54 525.992 1190.81 535.478 1203.18 535.226 z" fill="rgb(47,16,43)" transform="translate(0,0)"></path>
<path d="M 1087.84 473.002 C 1115.24 470.345 1120.23 502.737 1100.33 509.607 C 1090.97 508.739 1088.6 508.226 1080.3 503.207 C 1071.65 490.023 1075.13 481.086 1087.84 473.002 z M 1098.13 497.742 C 1105.2 488.985 1099.93 482.35 1089.32 482.596 C 1083.37 493.091 1086.87 497.286 1098.13 497.742 z" fill="rgb(47,16,43)" transform="translate(0,0)"></path>
<path d="M 1023.37 560.829 C 1023.32 560.804 1033.73 567.662 1033.26 567.335 C 1040.59 572.474 1071.93 587.293 1074.49 595.834 C 1077.87 607.164 1071.96 648.524 1067.51 659.636 C 1062.19 672.92 1032.61 680.316 1018.32 685.219 L 1007.74 687.785 C 997.583 683.581 992.155 678.24 984.479 670.866 C 959.763 647.122 970.999 625.416 971.761 593.881 C 988.784 582.408 1005.41 573.42 1023.37 560.829 z M 980.303 598.062 C 979.071 610.436 976.296 632.794 976.899 644.301 C 985.59 657.513 995.635 673.213 1010.01 680.731 L 1019.28 677.847 C 1030.16 673.582 1048.22 667.082 1057.97 661.47 C 1065.94 648.503 1067.28 615.493 1068.1 599.413 C 1060.22 592.086 1033.18 577.162 1022.97 572.035 C 1008.87 580.396 994.376 590.331 980.303 598.062 z" fill="rgb(47,16,43)" transform="translate(0,0)"></path>
<path d="M 853.579 413.41 C 860.556 411.67 867.927 413.874 872.804 419.159 C 877.681 424.444 879.287 431.968 876.993 438.784 C 874.699 445.6 868.87 450.621 861.79 451.882 C 851.347 453.741 841.308 446.989 839.094 436.614 C 836.88 426.24 843.286 415.977 853.579 413.41 z M 862.464 439.978 C 867.218 437.761 869.294 432.124 867.112 427.353 C 864.929 422.583 859.307 420.467 854.521 422.615 C 849.686 424.785 847.544 430.477 849.749 435.296 C 851.953 440.115 857.661 442.216 862.464 439.978 z" fill="rgb(47,16,43)" transform="translate(0,0)"></path>
<path d="M 919.246 745.236 C 946.941 770.701 956.13 776.721 994.551 778.412 C 1023.25 779.674 1052.41 778.916 1080.97 779.915 L 1083.09 783.46 L 1082.18 786 L 1079.5 786.735 C 1079.06 787.309 1076.56 790.655 1075.83 790.744 C 1044.04 794.608 988.565 792.655 958.347 785.371 C 943.472 781.785 923.989 754.846 919.246 745.236 z" fill="url(#Gradient3)" transform="translate(0,0)"></path>
<path d="M 1452.11 1114.75 C 1472.73 1109.56 1523.08 1100.01 1544.29 1101.51 L 1544.39 1102.26 C 1538.98 1106.53 1539.21 1105.47 1540.03 1111.83 L 1540.08 1112.67 C 1520.61 1110.27 1454.45 1122.22 1435.06 1129.63 C 1428.73 1132.05 1413.47 1139.22 1409.4 1139.95 L 1408.5 1137.41 L 1406.69 1136.9 C 1409.78 1134.08 1413.1 1133.65 1416.94 1131.73 L 1416.39 1131.68 C 1421.46 1128.83 1425.84 1126.47 1430.48 1122.86 C 1433.71 1120.34 1437.39 1114.42 1440.25 1113.3 L 1444.48 1115.74 C 1450.59 1118.66 1462.25 1119.62 1468.97 1118.89 C 1470.63 1117.04 1470.34 1118.06 1470.25 1115.98 C 1463.91 1114.39 1459.16 1116.53 1452.11 1114.75 z M 1514.77 1109.61 C 1518.85 1109.31 1520.73 1109.47 1524.38 1107.85 L 1523.73 1106.96 C 1518.07 1106.61 1515.21 1106.96 1509.67 1107.52 C 1505.36 1107.85 1497.44 1107.92 1494.1 1109.97 L 1495.93 1109.27 L 1496.88 1110.82 C 1502.86 1111.05 1508.97 1111.35 1514.77 1109.61 z" fill="rgb(253,253,253)" transform="translate(0,0)"></path>
<path d="M 1509.67 1107.52 C 1510.96 1108.03 1513.67 1109.03 1514.77 1109.61 C 1508.97 1111.35 1502.86 1111.05 1496.88 1110.82 L 1495.93 1109.27 L 1494.1 1109.97 C 1497.44 1107.92 1505.36 1107.85 1509.67 1107.52 z" fill="rgb(253,253,253)" fill-opacity="0.266667" transform="translate(0,0)"></path>
<path d="M 1509.67 1107.52 C 1515.21 1106.96 1518.07 1106.61 1523.73 1106.96 L 1524.38 1107.85 C 1520.73 1109.47 1518.85 1109.31 1514.77 1109.61 C 1513.67 1109.03 1510.96 1108.03 1509.67 1107.52 z" fill="rgb(253,253,253)" fill-opacity="0.537255" transform="translate(0,0)"></path>
<path d="M 627.844 1034.3 C 648.548 1036.19 667.474 1034.7 687.963 1032.16 L 688.436 1033.55 L 687.896 1034.17 C 689.748 1034.66 693.088 1034.91 694.029 1036.57 C 694.82 1037.97 694.568 1037.4 694.877 1039.08 C 667.678 1045 639.367 1047.82 611.86 1042.34 C 616.122 1038.63 623.292 1037.13 628.968 1035.38 L 627.844 1034.3 z" fill="rgb(253,253,253)" fill-opacity="0.396078" transform="translate(0,0)"></path>
<path d="M 887.132 778.865 L 884.479 776.478 C 889.958 770.007 895.196 763.474 900.874 757.168 C 903.296 757.95 902.271 757.271 903.689 759.674 C 903.687 763.173 903.053 762.631 904.447 764.931 L 906.334 765.782 C 906.624 769.625 897.61 781.408 895.158 785.769 L 895.663 788.341 C 890.868 791.895 889.425 795.535 887.462 801.109 L 885.616 796.671 C 880.71 794.887 877.289 795.299 875.089 790.085 C 875.725 785.973 878.469 782.631 881.512 779.935 L 883.754 782.692 L 885.245 782.384 L 887.132 778.865 z" fill="rgb(65,36,60)" transform="translate(0,0)"></path>
<path d="M 887.132 778.865 L 884.479 776.478 C 889.958 770.007 895.196 763.474 900.874 757.168 C 903.296 757.95 902.271 757.271 903.689 759.674 C 894.403 765.06 893.19 775.837 887.954 779.29 L 887.132 778.865 z" fill="rgb(253,253,253)" transform="translate(0,0)"></path>
<path d="M 904.447 764.931 L 906.334 765.782 C 906.624 769.625 897.61 781.408 895.158 785.769 C 895.148 780.544 901.721 770.47 904.447 764.931 z" fill="rgb(212,202,211)" transform="translate(0,0)"></path>
<path d="M 613.755 961.145 L 614.744 958.908 C 633.088 960.096 649.284 962.845 669.568 963.909 C 672.398 968.02 671.038 967.336 675.001 968.642 C 656.465 973.098 634.461 974.13 615.393 974.029 C 616.02 972.469 615.653 973.176 616.756 971.52 C 619.623 967.22 631.134 966.626 636.31 965.608 C 627.48 964.965 623.469 963.398 615.444 962.152 L 613.755 961.145 z" fill="url(#Gradient2)" transform="translate(0,0)"></path>
<path d="M 1465.24 1138.57 C 1466.3 1141.02 1466.32 1141.35 1467.96 1143.41 C 1478.11 1145.13 1506.22 1145.23 1516.42 1144.06 L 1524.28 1149.15 L 1529.92 1151.2 L 1530.94 1154.01 C 1515.46 1152.33 1503.9 1146.97 1484.55 1147.94 C 1476.7 1148.33 1452.12 1154.01 1449.48 1153.01 L 1451.44 1146.85 C 1451.7 1144.67 1451.37 1145.41 1449.37 1142.64 C 1452.41 1141.02 1461.42 1139.39 1465.24 1138.57 z" fill="rgb(253,253,253)" transform="translate(0,0)"></path>
<path d="M 1465.24 1138.57 C 1490.38 1134.74 1507.32 1134.75 1532.35 1142.31 L 1530.76 1143.11 C 1528.64 1144.17 1528.12 1144.28 1525.74 1144.81 L 1526.21 1146.54 L 1524.28 1149.15 L 1516.42 1144.06 C 1506.22 1145.23 1478.11 1145.13 1467.96 1143.41 C 1466.32 1141.35 1466.3 1141.02 1465.24 1138.57 z" fill="rgb(253,253,253)" fill-opacity="0.227451" transform="translate(0,0)"></path>
<path d="M 569.529 945.301 C 565.858 939.81 566.779 934.732 567.117 928.278 C 585.764 932.447 599.47 933.872 618.377 936.08 C 625.39 936.899 629.864 936.05 636.832 937.866 L 636.89 938.538 C 631.905 939.435 589.295 941.972 584.953 941.597 C 583.245 939.57 583.278 939.496 582.151 937.066 L 580.026 936.608 C 577.684 938.253 571.774 943.81 570.293 946.098 L 569.529 945.301 z" fill="url(#Gradient1)" transform="translate(0,0)"></path>
<path d="M 1556.18 1151.81 C 1566.54 1157 1587.34 1167.91 1595.5 1175.74 C 1589.22 1173.81 1580.36 1169.63 1575.61 1164.94 C 1573.56 1162.92 1572.55 1161.91 1569.63 1161.65 L 1568.58 1162.82 C 1571.49 1175.35 1599.36 1179.88 1605.64 1195.98 C 1591.03 1185.45 1574.92 1174.1 1558.89 1165.94 C 1550.22 1161.53 1540.04 1158.03 1530.94 1154.01 C 1541.88 1151.62 1551.64 1161.25 1559.69 1158.9 C 1560.15 1155.59 1559 1155.58 1556.18 1151.81 z" fill="rgb(253,253,253)" transform="translate(0,0)"></path>
<path d="M 1415.37 1078.44 C 1422.82 1080.1 1429.29 1082.35 1434.68 1088.04 C 1436.69 1092.17 1441.58 1095.53 1445.29 1098.62 C 1451.18 1096.47 1454.03 1096.04 1459.89 1094.51 C 1464.33 1093.35 1469.08 1090.36 1473.77 1088.67 C 1479.08 1088.38 1484.39 1088 1489.7 1087.53 L 1496.23 1090.24 C 1495.6 1090.93 1494.97 1091.62 1494.34 1092.3 C 1479.55 1095.68 1459.35 1100.66 1445.03 1103.3 C 1434.18 1092.63 1424.59 1087.17 1415.37 1078.44 z" fill="rgb(253,253,253)" transform="translate(0,0)"></path>
<path d="M 1072.14 1344.82 C 1074.32 1344.37 1073.49 1344.44 1075.57 1342.5 C 1080.73 1343.07 1080.64 1343.47 1081.47 1348.04 L 1084.2 1348.9 L 1086.34 1347.37 C 1092.06 1350.05 1135.67 1372.42 1137.57 1375.53 L 1135.91 1376.17 C 1121.04 1373.75 1100.48 1358.69 1085.21 1353.54 C 1081.64 1352.33 1071.33 1347.03 1068.33 1344.91 L 1072.14 1344.82 z" fill="rgb(253,253,253)" transform="translate(0,0)"></path>
<path d="M 832.613 921.944 L 832.588 926.571 C 834.813 928.57 833.49 927.78 837.703 927.61 C 827.3 936.712 804.689 956.619 790.383 946.217 L 789.473 944.282 L 790.029 943.672 C 794.982 941.509 797.994 941.844 802.944 940.485 C 816.611 936.731 822.995 931.378 832.613 921.944 z" fill="rgb(253,253,253)" transform="translate(0,0)"></path>
<path d="M 893.64 821.342 C 902.912 826.705 912.04 832.877 922.614 834.459 L 924.104 834.695 C 923.377 836.781 922.851 837.946 921.638 839.79 C 922.643 842.725 924.516 842.744 928.228 844.731 C 924.963 847.236 923.118 847.698 918.91 848.475 C 907.978 844.857 909.039 839.167 901.162 832.494 C 897.414 830.914 892.532 832.864 888.781 834.327 L 886.089 832.459 C 888.079 830.52 892.259 830.064 895.21 829.437 C 896.358 826.782 894.861 824.695 893.64 821.342 z" fill="rgb(253,253,253)" fill-opacity="0.533333" transform="translate(0,0)"></path>
<path d="M 1467.67 1081.69 C 1471.93 1080.53 1472.32 1080.49 1476.78 1080.49 L 1476.11 1082.15 L 1477.17 1082.25 C 1474.35 1084.44 1472.18 1085.14 1471.84 1087.7 L 1473.77 1088.67 C 1469.08 1090.36 1464.33 1093.35 1459.89 1094.51 C 1454.03 1096.04 1451.18 1096.47 1445.29 1098.62 C 1441.58 1095.53 1436.69 1092.17 1434.68 1088.04 L 1438.58 1084.81 L 1441.28 1087.79 C 1446.76 1089.97 1463.93 1085.87 1467.67 1081.69 z" fill="rgb(253,253,253)" fill-opacity="0.882353" transform="translate(0,0)"></path>
<path d="M 690.638 946.378 C 685.778 940.472 682.722 932.337 685.69 924.569 C 686.388 922.744 687.95 922.891 690.005 922.184 L 689.568 926.413 C 694.139 929.461 700.805 926.306 705.964 924.856 C 712.529 923.498 719.445 922.518 724.627 927.536 C 711.125 929.817 696.094 931.648 683.431 936.547 C 688.227 935.938 694.964 934.455 699.284 935.536 L 701.221 937.861 C 693.96 940.364 696.493 943.001 690.638 946.378 z" fill="rgb(253,253,253)" transform="translate(0,0)"></path>
<path d="M 1121.27 783.971 C 1127.02 784.084 1131.17 783.73 1136.52 785.823 C 1138.11 787.575 1137.71 786.807 1138.5 788.993 C 1123.81 788.303 1091.35 793.035 1078.14 791.45 L 1082.18 786 C 1083.22 786.225 1116.49 784.078 1121.27 783.971 z" fill="rgb(253,253,253)" fill-opacity="0.988235" transform="translate(0,0)"></path>
<path d="M 1605.64 1195.98 C 1599.36 1179.88 1571.49 1175.35 1568.58 1162.82 L 1569.63 1161.65 C 1572.55 1161.91 1573.56 1162.92 1575.61 1164.94 C 1580.36 1169.63 1589.22 1173.81 1595.5 1175.74 C 1601.41 1179.91 1609.36 1184.21 1614.55 1188.45 C 1612.16 1188.59 1610.58 1188.7 1608.22 1189.05 C 1606.79 1192.21 1608.05 1194.56 1608.87 1198.57 L 1605.64 1195.98 z" fill="rgb(253,253,253)" fill-opacity="0.262745" transform="translate(0,0)"></path>
<path d="M 522.411 592.858 C 524.042 596.053 526.069 600.815 528.794 602.564 C 529.565 599.264 529.25 598.046 531.236 595.942 L 532.258 597.859 C 531.815 603.969 531.188 604.714 534.788 608.979 C 536.853 611.253 542.351 616.944 543.039 619.406 C 543.139 621.228 543.275 622.499 543.482 624.3 C 534.407 629.778 524.008 613.202 522.323 605.9 C 521.619 602.844 522.215 596.207 522.411 592.858 z" fill="rgb(65,36,60)" transform="translate(0,0)"></path>
<path d="M 697.85 920.224 C 703.827 919.465 715.411 916.175 721.781 914.878 C 729.402 913.325 729.077 913.507 732.152 908.488 L 733.028 908.514 L 735.788 913.934 C 733.884 914.087 732.681 914.134 730.806 913.761 C 728.732 915.835 728.835 915.651 728.285 918.533 C 730.751 921.742 732.951 921.643 737.525 923.1 C 735.979 925.333 730.83 927.214 727.884 928.563 L 724.627 927.536 C 719.445 922.518 712.529 923.498 705.964 924.856 C 702.875 923.257 700.8 922.073 697.85 920.224 z" fill="rgb(253,253,253)" fill-opacity="0.384314" transform="translate(0,0)"></path>
<path d="M 1612.78 1155.25 C 1616.87 1157.92 1634.53 1174.65 1635.94 1178.34 L 1633.52 1180.73 C 1633.96 1184.48 1636.14 1186.03 1638.83 1189.4 C 1628.72 1181.91 1612.8 1167.97 1602.25 1159.5 C 1608.95 1159.03 1609.81 1162.01 1612.78 1155.25 z" fill="rgb(253,253,253)" fill-opacity="0.607843" transform="translate(0,0)"></path>
<path d="M 653.794 1020.87 C 665.164 1019.67 674.152 1019.74 685.515 1020.83 L 669.86 1022.65 C 659.246 1024.05 622.281 1027.17 615.669 1029.74 C 617.439 1023.81 617.719 1024.36 623.374 1021.68 C 631.356 1021.8 644.784 1020.93 653.794 1020.87 z" fill="rgb(253,253,253)" transform="translate(0,0)"></path>
<path d="M 653.794 1020.87 C 665.164 1019.67 674.152 1019.74 685.515 1020.83 L 669.86 1022.65 C 666.927 1020.61 658.249 1021.12 653.794 1020.87 z" fill="rgb(212,202,211)" transform="translate(0,0)"></path>
<path d="M 1273.91 1173.85 C 1274.42 1182.9 1223.04 1229.01 1212.91 1235.29 L 1212.61 1234.24 C 1213.29 1231.41 1231.08 1217.29 1234.4 1214.3 C 1248.47 1201.63 1259.86 1186.38 1273.91 1173.85 z" fill="rgb(253,253,253)" transform="translate(0,0)"></path>
<path d="M 714.187 1026.56 C 718.648 1029.29 722.955 1026.33 729.381 1028.71 C 718.359 1033.17 706.424 1036.22 694.877 1039.08 C 694.568 1037.4 694.82 1037.97 694.029 1036.57 C 693.088 1034.91 689.748 1034.66 687.896 1034.17 L 688.436 1033.55 L 687.963 1032.16 C 696.697 1030.83 705.562 1028.58 714.187 1026.56 z" fill="rgb(253,253,253)" fill-opacity="0.984314" transform="translate(0,0)"></path>
<path d="M 1275.26 1136.95 L 1276.71 1135.67 C 1282.31 1137.99 1284.62 1139.52 1289.62 1142.69 L 1289.87 1143.74 L 1289.39 1144.16 C 1286.76 1148.67 1288.72 1152.16 1290.54 1156.94 L 1288.82 1157.21 C 1282.3 1153.44 1272.05 1147.7 1266.43 1143.26 L 1266.9 1141.32 C 1270.54 1142.53 1275.58 1144.74 1278.98 1143.25 C 1278.56 1139.67 1278.14 1140.29 1275.26 1136.95 z" fill="rgb(253,253,253)" fill-opacity="0.988235" transform="translate(0,0)"></path>
<path d="M 1109.43 778.554 C 1116.48 777.672 1133.58 777.32 1141 777.177 C 1138.79 779.316 1139.39 778.039 1139.22 781.166 C 1141.45 784.201 1144.71 786.324 1148.39 787.141 C 1149.96 787.5 1152.96 787.351 1154.64 787.273 C 1149.48 788.119 1143.75 788.508 1138.5 788.993 C 1137.71 786.807 1138.11 787.575 1136.52 785.823 C 1131.17 783.73 1127.02 784.084 1121.27 783.971 C 1111.77 781.719 1119.38 780.95 1109.43 778.554 z" fill="rgb(253,253,253)" fill-opacity="0.564706" transform="translate(0,0)"></path>
<path d="M 1080.97 779.915 C 1085.89 778.86 1103.29 778.77 1109.43 778.554 C 1119.38 780.95 1111.77 781.719 1121.27 783.971 C 1116.49 784.078 1083.22 786.225 1082.18 786 L 1083.09 783.46 L 1080.97 779.915 z" fill="rgb(253,253,253)" fill-opacity="0.921569" transform="translate(0,0)"></path>
<path d="M 1041.72 1326.77 C 1047.87 1329.44 1070.16 1338.14 1072.94 1342.16 L 1072.14 1344.82 L 1068.33 1344.91 C 1058.01 1340.14 1047.56 1335.16 1037.07 1330.8 L 1041.72 1326.77 z" fill="rgb(253,253,253)" fill-opacity="0.0705882" transform="translate(0,0)"></path>
<path d="M 1509.66 1048.94 C 1494.44 1049.4 1458.75 1056.28 1442.21 1058.88 C 1452.65 1053.49 1496.89 1046.99 1509.82 1047.01 C 1513.76 1049.74 1518.33 1052.33 1521.16 1056.05 L 1519.85 1058.58 C 1516.12 1054.64 1513.81 1052.45 1509.66 1048.94 z" fill="rgb(212,202,211)" transform="translate(0,0)"></path>
<path d="M 1079.48 1216.34 C 1092.19 1221.24 1108.04 1229.83 1120.39 1235.87 C 1123.05 1237.17 1122.63 1237.35 1123.04 1239.33 C 1120.15 1239 1078.78 1221.15 1078.37 1220.56 L 1079.48 1216.34 z" fill="rgb(253,253,253)" fill-opacity="0.027451" transform="translate(0,0)"></path>
<path d="M 1532.35 1142.31 C 1538.31 1144.47 1544.33 1146.47 1550 1149.32 C 1540.89 1153.02 1539.42 1153.37 1529.92 1151.2 L 1524.28 1149.15 L 1526.21 1146.54 L 1525.74 1144.81 C 1528.12 1144.28 1528.64 1144.17 1530.76 1143.11 L 1532.35 1142.31 z" fill="rgb(253,253,253)" fill-opacity="0.0862745" transform="translate(0,0)"></path>
<path d="M 1075.92 1073.79 C 1083.64 1068.47 1107.75 1058.21 1117.07 1054.14 C 1113.13 1057.1 1085.32 1074.65 1081.02 1076.34 L 1075.92 1073.79 z" fill="rgb(253,253,253)" transform="translate(0,0)"></path>
<path d="M 888.781 834.327 C 892.532 832.864 897.414 830.914 901.162 832.494 C 909.039 839.167 907.978 844.857 918.91 848.475 C 907.842 847.142 898.326 840.011 888.781 834.327 z" fill="rgb(253,253,253)" transform="translate(0,0)"></path>
<path d="M 1550 1149.32 C 1552.07 1150.13 1554.15 1150.89 1556.18 1151.81 C 1559 1155.58 1560.15 1155.59 1559.69 1158.9 C 1551.64 1161.25 1541.88 1151.62 1530.94 1154.01 L 1529.92 1151.2 C 1539.42 1153.37 1540.89 1153.02 1550 1149.32 z" fill="rgb(253,253,253)" fill-opacity="0.32549" transform="translate(0,0)"></path>
<path d="M 1433.3 1080.19 L 1434.65 1078.62 C 1440.06 1080.25 1441.98 1082.08 1446.67 1084.26 C 1453.26 1083.43 1461.16 1082.23 1467.67 1081.69 C 1463.93 1085.87 1446.76 1089.97 1441.28 1087.79 L 1438.58 1084.81 C 1437.04 1083.68 1434.8 1081.53 1433.3 1080.19 z" fill="rgb(253,253,253)" transform="translate(0,0)"></path>
<path d="M 757.677 1005.83 C 767.078 1006.21 775.918 1003.71 785.781 1003.59 C 777.376 1007.57 756.173 1013.71 747.76 1010.15 L 749.649 1008.72 L 757.677 1005.83 z" fill="rgb(253,253,253)" transform="translate(0,0)"></path>
<path d="M 1174.34 1289.64 C 1175.05 1293.28 1154.35 1334.28 1150.88 1336.99 L 1149.76 1335.32 C 1155.97 1322.34 1167.04 1302.42 1174.34 1289.64 z" fill="rgb(212,202,211)" transform="translate(0,0)"></path>
<path d="M 1284.99 1193.92 C 1281.64 1191.42 1282.85 1170.53 1282.87 1165.42 C 1286.08 1173.27 1289.02 1180.49 1289.7 1189.01 L 1288.56 1190.29 L 1284.99 1193.92 z" fill="rgb(253,253,253)" fill-opacity="0.929412" transform="translate(0,0)"></path>
<path d="M 1554.04 1085.97 C 1560.91 1096 1569.28 1117.19 1573.28 1129.15 L 1571.64 1131.3 C 1568.69 1119.41 1560.03 1094.64 1548.78 1088.38 L 1554.04 1085.97 z" fill="rgb(212,202,211)" transform="translate(0,0)"></path>
<path d="M 832.613 921.944 C 835.801 918.556 838.855 915.583 842.19 912.371 C 842.886 916.874 842.045 915.693 844.794 918.475 L 846.451 918.598 C 843.739 922.44 841.162 924.477 837.703 927.61 C 833.49 927.78 834.813 928.57 832.588 926.571 L 832.613 921.944 z" fill="rgb(253,253,253)" fill-opacity="0.392157" transform="translate(0,0)"></path>
<path d="M 910.324 772.551 C 906.69 779.772 897.035 796.429 890.472 800.813 L 887.462 801.109 C 889.425 795.535 890.868 791.895 895.663 788.341 C 900.73 783.703 905.726 777.756 910.324 772.551 z" fill="rgb(253,253,253)" transform="translate(0,0)"></path>
<path d="M 654.647 1367.31 L 655.975 1367.49 C 652.8 1370.44 614.898 1381.78 609.207 1383.26 L 607.296 1383.58 L 606.75 1382.02 C 608.863 1380.42 648.125 1369.21 654.647 1367.31 z" fill="rgb(140,113,136)" transform="translate(0,0)"></path>
<path d="M 662.63 931.346 C 665.365 930.86 665.271 930.694 667.874 931.506 L 668.304 933.215 C 664.907 938.205 662.921 938.331 657.164 939.701 C 653.971 938.502 653.123 938.438 650.904 935.783 L 651.129 934.152 C 654.797 931.549 658.048 931.775 662.63 931.346 z" fill="rgb(253,253,253)" fill-opacity="0.113725" transform="translate(0,0)"></path>
<path d="M 1476.78 1080.49 L 1487.38 1078.37 L 1488.01 1079.79 L 1489.75 1080.56 C 1485.65 1085.23 1483.44 1082 1482.31 1086.05 C 1485.39 1087.9 1486.05 1086.79 1489.7 1087.53 C 1484.39 1088 1479.08 1088.38 1473.77 1088.67 L 1471.84 1087.7 C 1472.18 1085.14 1474.35 1084.44 1477.17 1082.25 L 1476.11 1082.15 L 1476.78 1080.49 z" fill="rgb(253,253,253)" fill-opacity="0.141176" transform="translate(0,0)"></path>
<path d="M 1376.24 1207.82 L 1377.12 1208.32 C 1376.74 1211.54 1350.03 1236.99 1345.6 1241.39 C 1344.55 1241.13 1345.04 1241.41 1344.29 1240.29 C 1347.7 1235.54 1371.09 1212.86 1376.24 1207.82 z" fill="rgb(65,36,60)" transform="translate(0,0)"></path>
<path d="M 629.479 1395.47 C 635.077 1393.88 644.675 1390.55 650.22 1391.57 C 650.527 1398.09 643.681 1398.13 638.332 1398.87 C 635.08 1397.43 632.856 1396.62 629.479 1395.47 z" fill="rgb(253,253,253)" fill-opacity="0.309804" transform="translate(0,0)"></path>
<path d="M 1168.13 1262.79 C 1171.46 1263.33 1182.82 1269.3 1184.72 1271.44 L 1182.56 1276.16 C 1178.68 1273.12 1167.27 1266.11 1165.03 1263.32 L 1168.13 1262.79 z" fill="rgb(253,253,253)" transform="translate(0,0)"></path>
<path d="M 615.444 962.152 C 623.469 963.398 627.48 964.965 636.31 965.608 C 631.134 966.626 619.623 967.22 616.756 971.52 C 615.653 973.176 616.02 972.469 615.393 974.029 L 604.508 973.475 C 611.076 973.3 616.02 970.945 618.647 964.702 L 615.444 962.152 z" fill="rgb(253,253,253)" fill-opacity="0.631373" transform="translate(0,0)"></path>
<path d="M 1365.76 1086.05 C 1372.61 1085.78 1375.79 1090.26 1381.25 1095.1 C 1368.44 1087.85 1366.66 1086.86 1354.02 1093.86 C 1348.03 1097.57 1345.37 1099.41 1338.75 1101.86 C 1346.93 1094.28 1355.44 1089.84 1365.76 1086.05 z" fill="rgb(253,253,253)" transform="translate(0,0)"></path>
<path d="M 1635.94 1178.34 C 1639.62 1182.17 1642.46 1184.99 1646.45 1188.56 L 1643.5 1193.43 C 1640.71 1192.29 1640.92 1191.9 1638.83 1189.4 C 1636.14 1186.03 1633.96 1184.48 1633.52 1180.73 L 1635.94 1178.34 z" fill="rgb(253,253,253)" fill-opacity="0.0196078" transform="translate(0,0)"></path>
<path d="M 1050.12 1356.72 C 1054.77 1357.73 1063.84 1360 1067.3 1363.11 L 1067.67 1364.98 C 1063.36 1367.43 1049.57 1360.54 1046.13 1357.71 C 1048.11 1357.51 1048.19 1357.35 1050.12 1356.72 z" fill="rgb(253,253,253)" transform="translate(0,0)"></path>
<path d="M 1444.48 1115.74 L 1452.11 1114.75 C 1459.16 1116.53 1463.91 1114.39 1470.25 1115.98 C 1470.34 1118.06 1470.63 1117.04 1468.97 1118.89 C 1462.25 1119.62 1450.59 1118.66 1444.48 1115.74 z" fill="rgb(253,253,253)" fill-opacity="0.376471" transform="translate(0,0)"></path>
<path d="M 690.005 922.184 L 697.85 920.224 C 700.8 922.073 702.875 923.257 705.964 924.856 C 700.805 926.306 694.139 929.461 689.568 926.413 L 690.005 922.184 z" fill="rgb(253,253,253)" fill-opacity="0.2" transform="translate(0,0)"></path>
<path d="M 822.925 969.135 L 823.377 969.885 C 822.55 973.086 812.044 981.758 809.002 984.496 C 808.197 981.933 807.71 981.357 808.057 978.769 C 811.531 974.861 818.081 971.881 822.925 969.135 z" fill="rgb(253,253,253)" fill-opacity="0.0705882" transform="translate(0,0)"></path>
<path d="M 629.479 1395.47 C 632.856 1396.62 635.08 1397.43 638.332 1398.87 C 633.771 1400.24 628.953 1401.59 624.447 1403.04 C 621.827 1399.86 622.616 1401.63 622.061 1397.5 C 623.917 1397.13 627.52 1396.01 629.479 1395.47 z" fill="rgb(253,253,253)" fill-opacity="0.0901961" transform="translate(0,0)"></path>
<path d="M 714.187 1026.56 C 723.13 1024.44 724.894 1023.78 734.195 1025.08 L 735.56 1026.27 L 735.086 1026.24 C 732.772 1028.57 733.189 1027.86 729.381 1028.71 C 722.955 1026.33 718.648 1029.29 714.187 1026.56 z" fill="rgb(253,253,253)" transform="translate(0,0)"></path>
<path d="M 1010.98 1285.44 C 1009.02 1289.79 1004.2 1300.33 1001.31 1304.01 L 997.592 1301.97 C 999.944 1296.57 1006.81 1289.69 1010.98 1285.44 z" fill="rgb(253,253,253)" fill-opacity="0.529412" transform="translate(0,0)"></path>
<path d="M 611.792 1515.82 C 611.658 1520.84 600.923 1542.84 597.959 1549.23 C 596.003 1543.13 608.365 1522.41 611.792 1515.82 z" fill="rgb(140,113,136)" transform="translate(0,0)"></path>
<path d="M 1013.39 428.854 C 1013.3 425.153 1013.09 420.698 1015.45 417.782 L 1016.86 418.313 C 1018.41 422.019 1017.2 427.037 1016.52 431.154 L 1013.39 428.854 z" fill="rgb(253,253,253)" fill-opacity="0.458824" transform="translate(0,0)"></path>
<path d="M 660.134 1397.41 C 658.416 1403.67 655.08 1413.03 651.935 1418.63 C 653.337 1412.85 655.946 1400.79 658.387 1395.99 L 660.134 1397.41 z" fill="rgb(167,153,166)" fill-opacity="0.984314" transform="translate(0,0)"></path>
<path d="M 669.568 963.909 C 674.916 963.816 677.025 963.396 682.009 965.429 L 682.2 966.706 C 679.284 968.321 678.252 968.243 675.001 968.642 C 671.038 967.336 672.398 968.02 669.568 963.909 z" fill="rgb(253,253,253)" fill-opacity="0.286275" transform="translate(0,0)"></path>
<path d="M 722.811 812.48 L 724.819 817.558 L 725.933 817.84 C 726.149 822.242 724.554 833.802 723.982 838.76 C 722.744 829.953 722.887 821.357 722.811 812.48 z" fill="rgb(65,36,60)" fill-opacity="0.972549" transform="translate(0,0)"></path>
<path d="M 793.96 904.885 C 797.707 907.975 800.981 914.786 803.011 919.175 C 797.504 916.318 794.58 910.91 793.96 904.885 z" fill="rgb(253,253,253)" fill-opacity="0.988235" transform="translate(0,0)"></path>
<path d="M 1573.28 1129.15 C 1574.67 1133.49 1576.84 1138.72 1576.54 1143.07 C 1573.72 1141.03 1572.52 1134.75 1571.64 1131.3 L 1573.28 1129.15 z" fill="rgb(253,253,253)" fill-opacity="0.984314" transform="translate(0,0)"></path>
<path d="M 626.596 500.208 C 631.466 499.162 636.355 498.374 641.264 497.533 C 644.865 498.944 645.771 498.9 649.511 499.273 C 641.267 500.062 634.913 500.157 626.596 500.208 z" fill="rgb(253,253,253)" fill-opacity="0.0666667" transform="translate(0,0)"></path>
<path d="M 1165.03 1263.32 C 1161.86 1261.93 1161.27 1261.97 1158.95 1259.36 L 1159.76 1258.66 C 1163.6 1259.04 1164.99 1260.53 1168.13 1262.79 L 1165.03 1263.32 z" fill="rgb(253,253,253)" fill-opacity="0.0980392" transform="translate(0,0)"></path>
<path d="M 1145.05 1346.42 C 1146.15 1341.66 1146.31 1339.18 1150.88 1336.99 C 1149.83 1341.22 1148.39 1343.8 1145.05 1346.42 z" fill="rgb(253,253,253)" fill-opacity="0.054902" transform="translate(0,0)"></path>
<path d="M 701.985 598.253 L 709.414 599.334 L 709.69 600.033 C 707.374 600.684 705.228 601.282 702.885 601.847 C 702.716 599.999 702.59 600.046 701.985 598.253 z" fill="rgb(47,16,43)" fill-opacity="0.886275" transform="translate(0,0)"></path>
<path d="M 906.876 136.5 C 937.579 108.002 965.674 94.3187 1008.28 91.804 C 1049.4 89.3771 1096.11 105.103 1126.01 133.533 C 1143.23 149.903 1163.14 171.682 1179.97 189.305 L 1270.3 284.413 L 1478.31 505.563 C 1493.62 521.781 1508.61 539.087 1523.91 555.059 L 1784.94 830.459 L 1856.35 907.706 C 1883.61 936.885 1910.42 961.392 1927.3 998.383 C 1950.89 1050.07 1944.83 1114.26 1913.48 1161.41 C 1901.08 1180.05 1876.29 1199.64 1859.37 1215.06 C 1841.89 1231.25 1824.53 1247.56 1807.29 1264 L 1601.12 1459.21 C 1556.44 1501.33 1507.66 1545.06 1465.81 1589.62 C 1458.69 1592.57 1452.21 1594.45 1444.93 1596.87 C 1433.48 1600.66 1431.77 1604.78 1435.96 1615.57 C 1420.08 1632.01 1398.5 1651.38 1381.63 1667.83 L 1247.55 1798.61 C 1230.61 1815.16 1207.6 1835.83 1192.12 1852.56 L 1390.5 1852.77 C 1433.74 1852.95 1476.05 1853.87 1519.25 1851.71 C 1528.96 1855.39 1541.25 1860.47 1547.84 1868.5 C 1548.74 1872.33 1548.62 1870.9 1546.53 1875.24 C 1495.19 1876.11 1445.14 1875.34 1393.9 1875.22 L 1272.17 1875.86 C 1238.38 1875.99 1202.26 1875.5 1168.61 1876.74 C 1143.37 1897.95 1120.88 1926.41 1095.2 1946.53 C 1047.12 1983.43 970.596 1983.03 923.966 1943.23 C 879.031 1904.89 833.087 1861.39 790.228 1819.91 L 589.471 1625.44 C 561.449 1598.39 534.071 1576.77 506.654 1550.2 C 421.368 1465.98 337.067 1380.76 253.768 1294.57 L 178.127 1217.21 C 165.766 1204.43 145.595 1184.93 136.008 1171.19 C 110.714 1134.95 100.539 1087.63 108.061 1044.1 C 113.642 1011.81 124.639 990.386 144.926 964.639 C 158.258 947.719 174.111 935.44 189.327 920.656 C 208.221 902.297 226.978 884.358 246.192 866.421 L 407.443 713.8 C 425.207 696.887 442.744 679.737 460.048 662.354 C 468.844 653.532 486.078 635.288 495.331 628.631 C 501.514 634.335 505.226 637.509 513.143 641.205 C 474.423 682.604 435.293 718.775 394.476 757.916 L 259.346 888.233 C 238.025 908.286 216.901 928.547 195.974 949.011 C 183.615 961.072 170.613 973.465 159.41 986.799 C 124.006 1028.94 122.375 1105.97 153.553 1150.77 C 174.758 1181.23 209.937 1214.99 236.769 1242.19 L 332.186 1339.83 C 347.856 1355.63 362.421 1372.9 378.193 1388.51 C 451.673 1461.21 523.529 1536.97 599.11 1607.43 C 632.925 1638.55 666.491 1669.94 699.806 1701.6 C 724.656 1725.56 753.765 1755.73 779.633 1777.76 C 781.497 1779.91 790.301 1789.03 792.511 1790.26 C 816.903 1815.03 844.843 1840.28 869.995 1864.74 C 893.442 1885.78 917.629 1911.18 943.33 1929.14 C 977.782 1953.22 1032.64 1957.51 1068.94 1935.51 C 1088.81 1923.47 1106.55 1902.96 1122.91 1886.78 C 1138.84 1871.17 1154.89 1855.69 1171.08 1840.36 L 1508.9 1512.91 L 1758.55 1275.04 L 1836.62 1202.18 C 1850.65 1189.19 1868.01 1174.35 1880.73 1160.62 C 1896.03 1143.92 1906.98 1123.71 1912.61 1101.78 C 1922.13 1065.33 1915.41 1022.59 1896.05 990.467 C 1885.65 973.206 1861.3 948.626 1846.54 932.7 C 1823.08 907.175 1799.47 881.794 1775.7 856.558 L 1507.62 572.635 L 1231.09 277.486 L 1158.99 200.887 C 1145.21 186.113 1131.94 170.855 1117.46 156.762 C 1064.6 105.321 997.144 102.297 935.311 139.343 C 925.04 138.831 917.063 137.928 906.876 136.5 z" fill="rgb(210,100,111)" transform="translate(0,0)"></path>
<path d="M 1725.49 1364.15 C 1730.7 1358.35 1732.94 1355.75 1739.06 1351.06 C 1778.39 1487.72 1809.64 1626.58 1832.64 1766.92 L 1843.38 1835.7 C 1845.15 1847.43 1847.99 1863.46 1848.72 1874.97 C 1748.2 1876.03 1647.16 1874.06 1546.53 1875.24 C 1548.62 1870.9 1548.74 1872.33 1547.84 1868.5 C 1541.25 1860.47 1528.96 1855.39 1519.25 1851.71 C 1505.25 1843.13 1487.18 1836.05 1474.18 1827.27 C 1470.65 1815.51 1464.99 1777.4 1462.7 1763.65 L 1443.3 1651.8 C 1442.31 1646.28 1438 1619.27 1435.96 1615.57 C 1431.77 1604.78 1433.48 1600.66 1444.93 1596.87 C 1452.21 1594.45 1458.69 1592.57 1465.81 1589.62 C 1523.09 1570.52 1588.14 1553.17 1646.6 1537.72 C 1664.3 1533.04 1698.59 1522.71 1715.46 1519.97 C 1724.14 1556.29 1732.99 1591.07 1740.36 1627.72 C 1741.45 1624.29 1740.04 1609.98 1739.72 1605.37 C 1736.53 1555.35 1729.33 1505.67 1718.19 1456.81 C 1715.05 1443.25 1710.77 1429.1 1707.25 1415.67 C 1699.83 1387.39 1693.34 1390.01 1715.91 1371.51 C 1732.04 1413.25 1745.89 1482.58 1755.57 1527.06 C 1778.74 1633.53 1802.48 1748.24 1816.49 1856.39 L 1827.57 1856.03 C 1823.64 1815.55 1814.33 1765.65 1807.29 1725.16 C 1786.6 1603.43 1759.29 1482.91 1725.49 1364.15 z M 1452.69 1623.23 C 1458.56 1647.8 1462.21 1673.3 1466.51 1698.26 L 1487.51 1817.7 C 1506.81 1828.77 1527.48 1837.74 1547.12 1848 C 1565.01 1857.35 1571.05 1858.31 1590.93 1856.78 C 1567.75 1842.57 1526.35 1828.85 1499.05 1813.72 C 1486.46 1754.82 1477.16 1697.97 1466.07 1639.14 C 1481.61 1646.21 1495.66 1656.32 1510.57 1664.37 C 1532.56 1676.25 1553.68 1688.99 1575.06 1701.91 C 1586.75 1708.98 1600.25 1715.92 1611.41 1723.48 C 1616.77 1741.4 1623.17 1787.48 1624.77 1806.77 C 1623.12 1809.75 1623.82 1808.78 1619.61 1810.19 L 1618.33 1809.69 C 1615.6 1801.35 1611.19 1768.4 1608.94 1757.23 L 1604.34 1728.45 C 1591.19 1719.6 1573.36 1710.69 1559.25 1702.46 L 1474.15 1651.99 C 1481.24 1683.21 1487.41 1714.31 1493.12 1745.8 C 1496.64 1765.22 1502.88 1790.55 1504.54 1809.93 C 1525.51 1818.59 1546.41 1827.44 1567.22 1836.48 C 1577.2 1840.93 1603.88 1854.35 1612.28 1855.82 C 1620.34 1857.24 1648.34 1856.55 1658.27 1856.45 C 1665.6 1843.97 1674.39 1834.34 1682.42 1822.92 C 1700.32 1797.48 1722.24 1773.29 1740.24 1748.51 C 1734.39 1714.1 1728.88 1679.87 1720.87 1645.89 C 1718.62 1636.34 1717.08 1626.16 1714.58 1616.78 C 1706.03 1631.31 1658.75 1712.25 1650.4 1719.3 C 1651.51 1734.13 1659.06 1789.47 1655.8 1799.21 L 1654.34 1799.07 C 1649.59 1789.08 1641.86 1731.47 1639.95 1717.2 C 1650.43 1709.35 1658.22 1693.69 1665.26 1682.38 C 1675.78 1665.4 1686.44 1648.51 1697.24 1631.71 C 1702.08 1624.1 1707.7 1614.33 1712.86 1607.16 C 1710.39 1598.6 1705.41 1583.86 1703.56 1575.76 C 1700.39 1582.87 1684.16 1607.13 1678.89 1614.94 C 1662.82 1638.8 1643.11 1675.28 1625.6 1696.76 C 1591.26 1684.1 1555.26 1665.22 1521.41 1650.68 C 1504.92 1643.6 1469.35 1626.18 1452.69 1623.23 z M 1724.79 1623.32 C 1725.96 1618.04 1725.2 1613.52 1723.36 1608.49 L 1721.37 1607.46 C 1719.28 1612.52 1719.29 1620.72 1724.79 1623.32 z M 1746.63 1751.77 C 1741.81 1759.09 1728.48 1771.5 1724.74 1779.28 C 1717.8 1793.71 1671.57 1845.1 1668.47 1855.36 L 1669.9 1856.11 L 1682.7 1856.02 C 1696.76 1834.62 1710.99 1813.29 1725.07 1791.89 C 1731.55 1782.03 1742.24 1763.22 1748.43 1754.96 C 1747.81 1752.5 1748.42 1753.56 1746.63 1751.77 z M 1707.76 1536.37 C 1694.45 1538.84 1678.15 1543.57 1664.91 1547.11 C 1634.1 1555.53 1603.39 1564.3 1572.78 1573.42 C 1544.52 1581.71 1516.55 1589.77 1488.7 1599.4 C 1476 1603.79 1464.94 1606.37 1452.72 1612.3 C 1459.9 1614.72 1470.62 1617.48 1477.16 1620.5 C 1525.32 1642.73 1574.84 1663.99 1622.26 1687.62 L 1628.12 1679.42 C 1643.21 1656.67 1658.12 1633.78 1672.82 1610.77 C 1680.14 1599.45 1687.63 1588.2 1694.54 1576.64 C 1697.26 1572.09 1696.44 1566.62 1691.75 1563.85 C 1679.87 1562.77 1628.69 1579.35 1612.95 1582.1 C 1608.16 1582.94 1598.94 1586.68 1593.76 1586.61 L 1594.09 1585.88 C 1616.52 1577.73 1679.17 1554.92 1701.29 1552.4 C 1702.73 1558.14 1713.04 1592.51 1716.33 1595.39 L 1718.9 1595.39 L 1718.19 1596.11 C 1718.4 1595.73 1718.65 1595.37 1718.82 1594.97 C 1721.23 1589.16 1710.48 1546.52 1708.68 1537.11 L 1707.76 1536.37 z" fill="rgb(47,16,43)" transform="translate(0,0)"></path>
<path d="M 1553.34 1595.31 C 1556.27 1595.02 1556.77 1594.75 1559.62 1595.61 L 1559.06 1596.76 C 1548.62 1601.45 1498.13 1615.27 1486.23 1617.79 C 1481.92 1618.48 1481.11 1618.8 1478.08 1615.97 L 1478.56 1614.23 C 1491.73 1607.97 1538.15 1597.9 1553.34 1595.31 z" fill="rgb(47,16,43)" transform="translate(0,0)"></path>
<path d="M 1721.37 1607.46 L 1723.36 1608.49 C 1725.2 1613.52 1725.96 1618.04 1724.79 1623.32 C 1719.29 1620.72 1719.28 1612.52 1721.37 1607.46 z" fill="rgb(253,253,253)" fill-opacity="0.00784314" transform="translate(0,0)"></path>
<path d="M 1724.44 1622.47 C 1728.31 1626.53 1729 1641.66 1728.52 1647.26 C 1726.56 1640.32 1722.1 1628.76 1724.44 1622.47 z" fill="rgb(253,253,253)" transform="translate(0,0)"></path>
<path d="M 528.399 1587.29 C 533.27 1589.59 545.437 1603.55 549.688 1608.2 C 551.163 1616.12 552.1 1627.73 553.159 1636.02 C 555.214 1652.09 557.573 1668.11 560.236 1684.09 C 567.726 1682.87 575.414 1681.22 582.878 1679.71 C 578.561 1663.09 576.926 1653.16 575.208 1635.99 L 586.379 1646.12 C 588.553 1654.34 590.636 1669.11 592.201 1678.15 C 598.149 1677.22 606.417 1675.12 611.685 1677.27 C 612.201 1677.9 612.717 1678.54 613.232 1679.18 C 610.811 1686.42 607.978 1693.6 605.2 1700.71 C 597.849 1719.53 589.928 1738.3 583.1 1757.3 C 580.965 1763.25 576.359 1774.14 576.483 1780.16 C 576.831 1797 581.496 1814.92 582.872 1831.83 C 583.305 1837.17 585.104 1848.3 589.059 1851.35 C 594.657 1847.89 583.083 1795.33 584.147 1785.4 C 587.947 1749.97 604.656 1714.7 615.99 1680.93 C 619.742 1684.2 625.529 1690.34 629.488 1694.11 C 617.792 1716.48 604.332 1752.88 599.011 1777.46 C 620.691 1774.01 641.791 1770.46 663.624 1768.02 C 670.213 1754.81 673.97 1741.59 680.816 1728.5 L 688.788 1736.73 C 683.43 1750.08 680.456 1758.94 673.805 1772.01 C 674.987 1780.88 684.941 1847.75 687.53 1851.46 C 690.157 1852.31 689.981 1852.22 692.725 1851.74 C 693.594 1846.72 688.508 1810.45 687.7 1801.96 C 684.382 1775.32 684.108 1765.08 692.24 1739.79 C 695.772 1743.49 699.761 1747.19 703.468 1750.75 C 700.368 1758.2 699.295 1761.29 697.35 1769.12 C 704.223 1767.48 707.977 1765.73 713.965 1770.23 C 714.883 1777.28 702.929 1776.63 698.184 1776.92 C 701.358 1801.78 702.99 1827.26 705.685 1852.14 C 733.96 1852.35 762.889 1851.97 791.062 1853.19 C 790.927 1847.87 791.267 1842.75 791.532 1837.45 C 805.993 1849.35 824.154 1864.25 837.476 1876.94 C 810.602 1877.86 778.157 1876.3 750.711 1876.18 L 629.644 1876.23 C 586.21 1876.12 543.166 1875.62 499.743 1877.11 L 502.358 1853.13 C 484.893 1842.03 451.065 1812.1 440.554 1794.32 C 432.908 1781.39 457.949 1745.17 464.158 1730.62 C 475.801 1703.34 491.335 1675.45 503.34 1647.98 C 512.054 1628.04 520.178 1607.57 528.399 1587.29 z M 490.285 1823.21 L 510.186 1839.57 C 508.895 1823.31 504.691 1802.67 504.944 1787.46 C 505.328 1764.37 530.575 1708.49 545.214 1691.14 C 538.237 1666.02 536.284 1645.74 532.351 1620.67 C 517.254 1657.72 499.024 1694.16 481.837 1730.24 C 474.395 1745.86 459.848 1771.79 454.319 1786.76 C 458.353 1795.52 481.986 1815.84 490.285 1823.21 z M 564.777 1796.31 C 550.627 1799.23 536.574 1802.6 522.641 1806.42 C 523.2 1813.05 526.766 1848.26 529.561 1851.81 L 531.75 1851.92 C 545.305 1851.77 559.447 1851.4 572.952 1851.54 C 572.014 1843.49 568.133 1799.53 564.777 1796.31 z M 595.386 1694.42 C 584.756 1695.14 569.907 1696.6 559.307 1698.57 C 544.769 1720.02 516.703 1773.23 521.799 1799.05 C 522.331 1799.18 522.863 1799.3 523.396 1799.43 C 534.579 1795.33 556.44 1791.15 563.435 1787.66 C 566.648 1765.34 576.468 1747.93 584.45 1727.17 C 586.692 1721.34 596.817 1698.76 596.553 1694.38 L 595.386 1694.42 z M 617.25 1852.14 L 673.256 1851.99 L 666.373 1801.87 C 665.529 1795.66 664.12 1782.07 662.656 1776.44 C 660.419 1776.18 660.854 1776.07 658.686 1776.38 L 599.102 1784.3 C 600.283 1795.43 604.65 1842.94 607.196 1851.19 C 609.849 1852.57 614.061 1852.16 617.25 1852.14 z" fill="rgb(47,16,43)" transform="translate(0,0)"></path>
<path d="M 779.633 1777.76 C 779.841 1769.18 769.566 1764.04 776.018 1750.67 C 785.216 1743.59 801.715 1763.02 807.673 1769 C 809.136 1770.46 818.294 1770.97 820.401 1770.78 L 822.485 1773.76 C 823.969 1795.09 817.877 1798.99 799.03 1794.04 C 796.984 1792.02 795.35 1789.02 792.511 1790.26 C 790.301 1789.03 781.497 1779.91 779.633 1777.76 z M 816.577 1789.62 C 818.547 1784.13 822.215 1776.9 815.54 1773.41 C 811.848 1773.96 806.712 1776.03 803.641 1774.89 C 796.58 1769.18 800.309 1761.01 785.918 1758.25 C 777.418 1784.76 794.275 1779.91 811.303 1790.42 C 812.221 1790.99 815.676 1789.9 816.577 1789.62 z" fill="rgb(253,253,253)" fill-opacity="0.176471" transform="translate(0,0)"></path>
<path d="M 785.918 1758.25 C 800.309 1761.01 796.58 1769.18 803.641 1774.89 C 806.712 1776.03 811.848 1773.96 815.54 1773.41 C 822.215 1776.9 818.547 1784.13 816.577 1789.62 C 815.676 1789.9 812.221 1790.99 811.303 1790.42 C 794.275 1779.91 777.418 1784.76 785.918 1758.25 z" fill="rgb(253,253,253)" fill-opacity="0.317647" transform="translate(0,0)"></path>
<metadata><recraft-signature>{"signed_by": "recraft", "signature_b64": "shLRO6OuvXDwAAJKV0WRSb045ujXtkAq8Wgukr0oabC+TAXyIQMNN6CLDXA8hqn7whg60wQi9pnC0W4HyTjKBA==", "signing_algo": "Ed25519", "generation_timestamp": 1777771462, "identifier": "76dde185-07df-4105-8a47-8a220fc0de35"}</recraft-signature></metadata></svg>